<svg viewBox="0 0 1364 557" xmlns="http://www.w3.org/2000/svg" xmlns:serif="http://www.serif.com/" fill-rule="evenodd" clip-rule="evenodd" stroke-linecap="round" stroke-linejoin="round" stroke-miterlimit="1.5"><path d="M-1 368l256-58 292-9 173-67 106 12 88-30 241-17 156-100 54-89v549H-1V368z" fill="#fff" fill-opacity=".094" stroke="#fff" stroke-opacity=".294"/><path d="M-1 368v-10l256-58 292-9 173-67 106 12 88-30 241-17 156-100 54-89v10l-54 89-156 100-241 17-88 30-106-12-173 67-292 9-256 58z" fill-opacity=".094"/><path d="M-1 424l360-32 118-43 95-7 65 14 155-60 243-4 330-98v365H-1V424z" fill="#fff" fill-opacity=".075" stroke="#fff" stroke-opacity=".318"/><path d="M-1 424.75v-10l360-32 118-43 95-7 65 14 155-60 243-4 330-98v10l-330 98-243 4-155 60-65-14-95 7-118 43-360 32z" fill-opacity=".075"/><path d="M-1 506l450-88 167-10 135 18 184-36 124-1 67-36 172-49 67-19.5V559H-1v-53z" fill="#fff" fill-opacity=".102" stroke="#fff" stroke-opacity=".345"/><path d="M-1 506v-10l450-88 167-10 135 18 184-36 124-1 67-36 172-49 67-19.5v10l-67 19.5-172 49-67 36-124 1-184 36-135-18-167 10-450 88z" fill-opacity=".102"/><circle cx="254.5" cy="310.5" r="3.5" fill="#4a449d"/><circle cx="254.5" cy="310.5" r="3.5" fill="#fff" fill-opacity=".102"/><path d="M254.59 307.001l.09.004.089.005.089.008.088.01.087.012.086.015.086.016.085.019.084.02.084.023.082.024.082.027.081.029.08.03.079.032.078.034.077.036.076.038.075.04.074.041.072.043.072.045.07.046.07.048.068.05.066.051.066.053.064.054.063.056.061.057.06.059.059.06.057.061.056.063.054.064.053.066.051.066.05.068.048.07.046.07.045.072.043.072.041.074.04.075.038.076.036.077.034.078.032.079.03.08.029.081.027.082.024.082.023.084.02.084.019.085.016.086.015.086.012.087.01.088.008.089.005.089.004.09.001.09-.001.09-.004.09-.005.089-.008.089-.01.088-.012.087-.015.086-.016.086-.019.085-.02.084-.023.084-.024.082-.027.082-.029.081-.03.08-.032.079-.034.078-.036.077-.038.076-.04.075-.041.074-.043.072-.045.072-.046.07-.048.07-.05.068-.051.066-.053.066-.054.064-.056.063-.057.061-.059.06-.06.059-.061.057-.063.056-.064.054-.066.053-.066.051-.068.05-.07.048-.07.046-.072.045-.072.043-.074.041-.075.04-.076.038-.077.036-.078.034-.079.032-.08.03-.081.029-.082.027-.082.024-.084.023-.084.02-.085.019-.086.016-.086.015-.087.012-.088.01-.089.008-.089.005-.09.004-.09.001-.09-.001-.09-.004-.089-.005-.089-.008-.088-.01-.087-.012-.086-.015-.086-.016-.085-.019-.084-.02-.084-.023-.082-.024-.082-.027-.081-.029-.08-.03-.079-.032-.078-.034-.077-.036-.076-.038-.075-.04-.074-.041-.072-.043-.072-.045-.07-.046-.07-.048-.068-.05-.066-.051-.066-.053-.064-.054-.063-.056-.061-.057-.06-.059-.059-.06-.057-.061-.056-.063-.054-.064-.053-.066-.051-.066-.05-.068-.048-.07-.046-.07-.045-.072-.043-.072-.041-.074-.04-.075-.038-.076-.036-.077-.034-.078-.032-.079-.03-.08-.029-.081-.027-.082-.024-.082-.023-.084-.02-.084-.019-.085-.016-.086-.015-.086-.012-.087-.01-.088-.008-.089-.005-.089-.004-.09-.001-.09.001-.09.004-.09.005-.089.008-.089.01-.088.012-.087.015-.086.016-.086.019-.085.02-.084.023-.084.024-.082.027-.082.029-.081.03-.08.032-.079.034-.078.036-.077.038-.076.04-.075.041-.074.043-.072.045-.072.046-.07.048-.07.05-.068.051-.066.053-.066.054-.064.056-.063.057-.061.059-.06.06-.059.061-.057.063-.056.064-.054.066-.053.066-.051.068-.05.07-.048.07-.046.072-.045.072-.043.074-.041.075-.04.076-.038.077-.036.078-.034.079-.032.08-.03.081-.029.082-.027.082-.024.084-.023.084-.02.085-.019.086-.016.086-.015.087-.012.088-.01.089-.008.089-.005.09-.004.09-.001.09.001zm-.155 1l-.064.002-.064.004-.063.006-.063.007-.063.009-.061.01-.061.012-.061.013-.06.015-.059.016-.059.017-.058.019-.058.021-.057.021-.056.023-.056.025-.055.025-.054.027-.053.028-.053.03-.052.031-.051.032-.05.033-.05.034-.049.036-.047.036-.047.038-.046.039-.045.04-.044.041-.043.042-.042.043-.041.044-.04.045-.039.046-.038.047-.036.048-.036.048-.034.05-.033.05-.032.051-.031.052-.03.053-.028.053-.027.054-.025.055-.025.056-.023.056-.021.057-.021.058-.019.058-.017.059-.016.059-.015.06-.013.061-.012.061-.01.062-.009.062-.007.062-.006.064-.004.064-.002.064-.001.065.001.065.002.064.004.064.006.064.007.062.009.062.01.062.012.061.013.061.015.06.016.059.017.059.019.058.021.058.021.057.023.056.025.056.025.055.027.054.028.053.03.053.031.052.032.051.033.05.034.05.036.049.036.047.038.047.039.046.04.045.041.044.042.043.043.042.044.041.045.04.046.039.047.038.048.037.048.035.05.034.05.034.051.031.052.031.053.03.053.028.054.027.055.025.056.025.056.023.057.021.058.021.058.019.059.017.059.016.06.015.061.013.061.012.061.01.063.009.063.007.063.006.064.004.064.002.065.001.065-.001.064-.002.064-.004.063-.006.063-.007.063-.009.061-.01.061-.012.061-.013.06-.015.059-.016.059-.017.058-.019.058-.021.057-.021.056-.023.056-.025.055-.025.054-.027.053-.028.053-.03.052-.031.051-.031.05-.034.05-.034.048-.035.048-.037.047-.038.046-.039.045-.04.044-.041.043-.042.042-.043.041-.044.04-.045.039-.046.038-.047.036-.047.036-.049.034-.05.033-.05.032-.051.031-.052.03-.053.028-.053.027-.054.025-.055.025-.056.023-.056.021-.057.021-.058.019-.058.017-.059.016-.059.015-.06.013-.061.012-.061.01-.062.009-.062.007-.062.006-.064.004-.064.002-.064.001-.065-.001-.065-.002-.064-.004-.064-.006-.064-.007-.062-.009-.062-.01-.062-.012-.061-.013-.061-.015-.06-.016-.059-.017-.059-.019-.058-.021-.058-.021-.057-.023-.056-.025-.056-.025-.055-.027-.054-.028-.053-.03-.053-.031-.052-.032-.051-.033-.05-.034-.05-.036-.048-.036-.048-.038-.047-.039-.046-.04-.045-.041-.044-.042-.043-.043-.042-.044-.041-.045-.04-.046-.039-.047-.038-.047-.036-.049-.036-.05-.034-.05-.033-.051-.032-.052-.031-.053-.03-.053-.028-.054-.027-.055-.025-.056-.025-.056-.023-.057-.021-.058-.021-.058-.019-.059-.017-.059-.016-.06-.015-.061-.013-.061-.012-.061-.01-.063-.009-.063-.007-.063-.006-.064-.004-.064-.002-.065-.001-.065.001z" fill="#fff" fill-opacity=".345"/><g serif:id="v"><circle cx="546.5" cy="300.5" r="3.5" fill="#4a449d"/><circle cx="546.5" cy="300.5" r="3.5" fill="#fff" fill-opacity=".102"/><path d="M546.59 297.001l.09.004.089.005.089.008.088.01.087.012.086.015.086.016.085.019.084.02.084.023.082.024.082.027.081.029.08.03.079.032.078.034.077.036.076.038.075.04.074.041.072.043.072.045.07.046.07.048.068.05.066.051.066.053.064.054.063.056.061.057.06.059.059.06.057.061.056.063.054.064.053.066.051.066.05.068.048.07.046.07.045.072.043.072.041.074.04.075.038.076.036.077.034.078.032.079.03.08.029.081.027.082.024.082.023.084.02.084.019.085.016.086.015.086.012.087.01.088.008.089.005.089.004.09.001.09-.001.09-.004.09-.005.089-.008.089-.01.088-.012.087-.015.086-.016.086-.019.085-.02.084-.023.084-.024.082-.027.082-.029.081-.03.08-.032.079-.034.078-.036.077-.038.076-.04.075-.041.074-.043.072-.045.072-.046.07-.048.07-.05.068-.051.066-.053.066-.054.064-.056.063-.057.061-.059.06-.06.059-.061.057-.063.056-.064.054-.066.053-.066.051-.068.05-.07.048-.07.046-.072.045-.072.043-.074.041-.075.04-.076.038-.077.036-.078.034-.079.032-.08.03-.081.029-.082.027-.082.024-.084.023-.084.02-.085.019-.086.016-.086.015-.087.012-.088.01-.089.008-.089.005-.09.004-.09.001-.09-.001-.09-.004-.089-.005-.089-.008-.088-.01-.087-.012-.086-.015-.086-.016-.085-.019-.084-.02-.084-.023-.082-.024-.082-.027-.081-.029-.08-.03-.079-.032-.078-.034-.077-.036-.076-.038-.075-.04-.074-.041-.072-.043-.072-.045-.07-.046-.07-.048-.068-.05-.066-.051-.066-.053-.064-.054-.063-.056-.061-.057-.06-.059-.059-.06-.057-.061-.056-.063-.054-.064-.053-.066-.051-.066-.05-.068-.048-.07-.046-.07-.045-.072-.043-.072-.041-.074-.04-.075-.038-.076-.036-.077-.034-.078-.032-.079-.03-.08-.029-.081-.027-.082-.024-.082-.023-.084-.02-.084-.019-.085-.016-.086-.015-.086-.012-.087-.01-.088-.008-.089-.005-.089-.004-.09-.001-.09.001-.09.004-.09.005-.089.008-.089.01-.088.012-.087.015-.086.016-.086.019-.085.02-.084.023-.084.024-.082.027-.082.029-.081.03-.08.032-.079.034-.078.036-.077.038-.076.04-.075.041-.074.043-.072.045-.072.046-.07.048-.07.05-.068.051-.066.053-.066.054-.064.056-.063.057-.061.059-.06.06-.059.061-.057.063-.056.064-.054.066-.053.066-.051.068-.05.07-.048.07-.046.072-.045.072-.043.074-.041.075-.04.076-.038.077-.036.078-.034.079-.032.08-.03.081-.029.082-.027.082-.024.084-.023.084-.02.085-.019.086-.016.086-.015.087-.012.088-.01.089-.008.089-.005.09-.004.09-.001.09.001zm-.155 1l-.064.002-.064.004-.063.006-.063.007-.063.009-.061.01-.061.012-.061.013-.06.015-.059.016-.059.017-.058.019-.058.021-.057.021-.056.023-.056.025-.055.025-.054.027-.053.028-.053.03-.052.031-.051.032-.05.033-.05.034-.049.036-.047.036-.047.038-.046.039-.045.04-.044.041-.043.042-.042.043-.041.044-.04.045-.039.046-.038.047-.036.047-.036.049-.034.05-.034.05-.031.051-.031.052-.03.053-.028.053-.027.055-.025.054-.025.056-.023.056-.022.057-.02.058-.019.058-.017.059-.016.059-.015.06-.013.061-.012.061-.01.061-.009.063-.007.063-.006.063-.004.064-.002.064-.001.065.001.065.002.064.004.064.006.063.007.063.009.063.01.061.012.061.013.061.015.06.016.059.017.059.019.058.02.058.022.057.023.056.025.056.025.054.027.055.028.053.03.053.031.052.031.051.034.05.034.05.036.049.036.047.038.047.039.046.04.045.041.044.042.043.043.042.044.041.045.04.046.039.047.038.047.036.049.036.05.034.05.033.051.032.052.031.053.03.053.028.054.027.055.025.056.025.056.023.057.021.058.021.058.019.059.017.059.016.06.015.061.013.061.012.061.01.063.009.063.007.063.006.064.004.064.002.065.001.065-.001.064-.002.064-.004.063-.006.063-.007.063-.009.061-.01.061-.012.061-.013.06-.015.059-.016.059-.017.058-.019.058-.021.057-.021.056-.023.056-.025.055-.025.054-.027.053-.028.053-.03.052-.031.051-.032.05-.033.05-.034.048-.036.048-.036.047-.038.046-.039.045-.04.044-.041.043-.042.042-.043.041-.044.04-.045.039-.046.038-.047.036-.047.036-.049.034-.05.033-.05.032-.051.031-.052.03-.053.028-.053.027-.055.025-.054.025-.056.023-.056.021-.057.021-.058.019-.058.017-.058.016-.06.015-.06.013-.061.012-.061.01-.061.009-.063.007-.063.006-.063.004-.064.002-.064.001-.065-.001-.065-.002-.064-.004-.064-.006-.063-.007-.063-.009-.063-.01-.061-.012-.061-.013-.061-.015-.06-.016-.06-.017-.058-.019-.058-.021-.058-.021-.057-.023-.056-.025-.056-.025-.054-.027-.055-.028-.053-.03-.053-.031-.052-.032-.051-.033-.05-.034-.05-.036-.049-.036-.047-.038-.047-.039-.046-.04-.045-.041-.044-.042-.043-.043-.042-.044-.041-.045-.04-.046-.039-.047-.038-.048-.036-.048-.036-.05-.034-.05-.033-.051-.032-.052-.031-.053-.03-.053-.028-.054-.027-.055-.025-.056-.025-.056-.023-.057-.021-.058-.021-.058-.019-.059-.017-.059-.016-.06-.015-.061-.013-.061-.012-.061-.01-.063-.009-.063-.007-.063-.006-.064-.004-.064-.002-.065-.001-.065.001z" fill="#fff" fill-opacity=".345"/></g><g serif:id="v"><circle cx="719.5" cy="234.5" r="3.5" fill="#4a449d"/><circle cx="719.5" cy="234.5" r="3.5" fill="#fff" fill-opacity=".102"/><path d="M719.59 231.001l.09.004.089.005.089.008.088.01.087.012.086.015.086.016.085.019.084.02.084.023.082.024.082.027.081.029.08.03.079.032.078.034.077.036.076.038.075.04.074.041.072.043.072.045.07.046.07.048.068.05.066.051.066.053.064.054.063.056.061.057.06.059.059.06.057.061.056.063.054.064.053.066.051.066.05.068.048.07.046.07.045.072.043.072.041.074.04.075.038.076.036.077.034.078.032.079.03.08.029.081.027.082.024.082.023.084.02.084.019.085.016.086.015.086.012.087.01.088.008.089.005.089.004.09.001.09-.001.09-.004.09-.005.089-.008.089-.01.088-.012.087-.015.086-.016.086-.019.085-.02.084-.023.084-.024.082-.027.082-.029.081-.03.08-.032.079-.034.078-.036.077-.038.076-.04.075-.041.074-.043.072-.045.072-.046.07-.048.07-.05.068-.051.066-.053.066-.054.064-.056.063-.057.061-.059.06-.06.059-.061.057-.063.056-.064.054-.066.053-.066.051-.068.05-.07.048-.07.046-.072.045-.072.043-.074.041-.075.04-.076.038-.077.036-.078.034-.079.032-.08.03-.081.029-.082.027-.082.024-.084.023-.084.02-.085.019-.086.016-.086.015-.087.012-.088.01-.089.008-.089.005-.09.004-.09.001-.09-.001-.09-.004-.089-.005-.089-.008-.088-.01-.087-.012-.086-.015-.086-.016-.085-.019-.084-.02-.084-.023-.082-.024-.082-.027-.081-.029-.08-.03-.079-.032-.078-.034-.077-.036-.076-.038-.075-.04-.074-.041-.072-.043-.072-.045-.07-.046-.07-.048-.068-.05-.066-.051-.066-.053-.064-.054-.063-.056-.061-.057-.06-.059-.059-.06-.057-.061-.056-.063-.054-.064-.053-.066-.051-.066-.05-.068-.048-.07-.046-.07-.045-.072-.043-.072-.041-.074-.04-.075-.038-.076-.036-.077-.034-.078-.032-.079-.03-.08-.029-.081-.027-.082-.024-.082-.023-.084-.02-.084-.019-.085-.016-.086-.015-.086-.012-.087-.01-.088-.008-.089-.005-.089-.004-.09-.001-.09.001-.09.004-.09.005-.089.008-.089.01-.088.012-.087.015-.086.016-.086.019-.085.02-.084.023-.084.024-.082.027-.082.029-.081.03-.08.032-.079.034-.078.036-.077.038-.076.04-.075.041-.074.043-.072.045-.072.046-.07.048-.07.05-.068.051-.066.053-.066.054-.064.056-.063.057-.061.059-.06.06-.059.061-.057.063-.056.064-.054.066-.053.066-.051.068-.05.07-.048.07-.046.072-.045.072-.043.074-.041.075-.04.076-.038.077-.036.078-.034.079-.032.08-.03.081-.029.082-.027.082-.024.084-.023.084-.02.085-.019.086-.016.086-.015.087-.012.088-.01.089-.008.089-.005.09-.004.09-.001.09.001zm-.155 1l-.064.002-.064.004-.063.006-.063.007-.063.009-.061.01-.061.012-.061.013-.06.015-.059.016-.059.017-.058.019-.058.021-.057.021-.056.023-.056.025-.055.025-.054.027-.053.028-.053.03-.052.031-.051.032-.05.033-.05.034-.048.036-.048.036-.047.038-.046.039-.045.04-.044.041-.043.042-.042.043-.041.044-.04.045-.039.046-.038.047-.036.047-.036.049-.034.05-.033.05-.032.051-.031.052-.03.053-.028.053-.027.054-.025.055-.025.056-.023.056-.021.057-.021.058-.019.058-.017.059-.016.059-.015.06-.013.061-.012.061-.01.061-.009.063-.007.063-.006.063-.004.064-.002.064-.001.065.001.065.002.064.004.064.006.063.007.063.009.063.01.061.012.061.013.061.015.06.016.059.017.059.019.058.021.058.021.057.023.056.025.056.025.054.027.055.028.053.03.053.031.052.032.051.033.05.034.05.036.049.036.047.038.047.039.046.04.045.041.044.042.043.043.042.044.041.045.04.046.039.047.038.048.036.048.036.05.034.05.033.051.032.052.031.053.03.053.028.054.027.055.025.056.025.056.023.057.021.058.021.058.019.059.017.059.016.06.015.061.013.061.012.062.01.062.009.062.007.064.006.064.004.064.002.065.001.065-.001.064-.002.064-.004.064-.006.062-.007.062-.009.062-.01.061-.012.061-.013.06-.015.059-.016.059-.017.058-.019.058-.021.057-.021.056-.023.056-.025.055-.025.054-.027.053-.028.053-.03.052-.031.051-.032.05-.033.05-.034.049-.036.047-.036.047-.038.046-.039.045-.04.044-.041.043-.042.042-.043.041-.044.04-.045.039-.046.038-.047.037-.048.035-.048.034-.05.034-.05.031-.051.031-.052.03-.053.028-.053.027-.055.025-.054.025-.056.023-.056.021-.057.021-.058.019-.058.017-.059.016-.059.015-.06.013-.061.012-.061.01-.061.009-.063.007-.063.006-.063.004-.064.002-.064.001-.065-.001-.065-.002-.064-.004-.064-.006-.063-.007-.063-.009-.063-.01-.061-.012-.061-.013-.061-.015-.06-.016-.059-.017-.059-.019-.058-.021-.058-.021-.057-.023-.056-.025-.056-.025-.055-.027-.054-.028-.053-.03-.053-.031-.052-.031-.051-.034-.05-.034-.05-.035-.048-.037-.048-.038-.047-.039-.046-.04-.045-.041-.044-.042-.043-.043-.042-.044-.041-.045-.04-.046-.039-.047-.038-.047-.036-.049-.036-.05-.034-.05-.033-.051-.032-.052-.031-.053-.03-.053-.028-.054-.027-.055-.025-.056-.025-.056-.023-.057-.021-.058-.021-.058-.019-.059-.017-.059-.016-.06-.015-.061-.013-.061-.012-.061-.01-.063-.009-.063-.007-.063-.006-.064-.004-.064-.002-.065-.001-.065.001z" fill="#fff" fill-opacity=".345"/></g><g serif:id="v"><circle cx="825.5" cy="246.5" r="3.5" fill="#4a449d"/><circle cx="825.5" cy="246.5" r="3.5" fill="#fff" fill-opacity=".102"/><path d="M825.59 243.001l.09.004.089.005.089.008.088.01.087.012.086.015.086.016.085.019.084.02.084.023.082.024.082.027.081.029.08.03.079.032.078.034.077.036.076.038.075.04.074.041.072.043.072.045.07.046.07.048.068.05.066.051.066.053.064.054.063.056.061.057.06.059.059.06.057.061.056.063.054.064.053.066.051.066.05.068.048.07.046.07.045.072.043.072.041.074.04.075.038.076.036.077.034.078.032.079.03.08.029.081.027.082.024.082.023.084.02.084.019.085.016.086.015.086.012.087.01.088.008.089.005.089.004.09.001.09-.001.09-.004.09-.005.089-.008.089-.01.088-.012.087-.015.086-.016.086-.019.085-.02.084-.023.084-.024.082-.027.082-.029.081-.03.08-.032.079-.034.078-.036.077-.038.076-.04.075-.041.074-.043.072-.045.072-.046.07-.048.07-.05.068-.051.066-.053.066-.054.064-.056.063-.057.061-.059.06-.06.059-.061.057-.063.056-.064.054-.066.053-.066.051-.068.05-.07.048-.07.046-.072.045-.072.043-.074.041-.075.04-.076.038-.077.036-.078.034-.079.032-.08.03-.081.029-.082.027-.082.024-.084.023-.084.02-.085.019-.086.016-.086.015-.087.012-.088.01-.089.008-.089.005-.09.004-.09.001-.09-.001-.09-.004-.089-.005-.089-.008-.088-.01-.087-.012-.086-.015-.086-.016-.085-.019-.084-.02-.084-.023-.082-.024-.082-.027-.081-.029-.08-.03-.079-.032-.078-.034-.077-.036-.076-.038-.075-.04-.074-.041-.072-.043-.072-.045-.07-.046-.07-.048-.068-.05-.066-.051-.066-.053-.064-.054-.063-.056-.061-.057-.06-.059-.059-.06-.057-.061-.056-.063-.054-.064-.053-.066-.051-.066-.05-.068-.048-.07-.046-.07-.045-.072-.043-.072-.041-.074-.04-.075-.038-.076-.036-.077-.034-.078-.032-.079-.03-.08-.029-.081-.027-.082-.024-.082-.023-.084-.02-.084-.019-.085-.016-.086-.015-.086-.012-.087-.01-.088-.008-.089-.005-.089-.004-.09-.001-.09.001-.09.004-.09.005-.089.008-.089.01-.088.012-.087.015-.086.016-.086.019-.085.02-.084.023-.084.024-.082.027-.082.029-.081.03-.08.032-.079.034-.078.036-.077.038-.076.04-.075.041-.074.043-.072.045-.072.046-.07.048-.07.05-.068.051-.066.053-.066.054-.064.056-.063.057-.061.059-.06.06-.059.061-.057.063-.056.064-.054.066-.053.066-.051.068-.05.07-.048.07-.046.072-.045.072-.043.074-.041.075-.04.076-.038.077-.036.078-.034.079-.032.08-.03.081-.029.082-.027.082-.024.084-.023.084-.02.085-.019.086-.016.086-.015.087-.012.088-.01.089-.008.089-.005.09-.004.09-.001.09.001zm-.155 1l-.064.002-.064.004-.063.006-.063.007-.063.009-.061.01-.061.012-.061.013-.06.015-.059.016-.059.017-.058.019-.058.021-.057.021-.056.023-.056.025-.055.025-.054.027-.053.028-.053.03-.052.031-.051.032-.05.033-.05.034-.048.035-.048.037-.047.038-.046.039-.045.04-.044.041-.043.042-.042.043-.041.044-.04.045-.039.046-.038.047-.037.047-.035.049-.034.049-.033.051-.032.051-.031.052-.03.053-.028.053-.027.055-.025.054-.025.056-.023.056-.022.058-.02.057-.019.058-.017.059-.016.059-.015.06-.013.06-.012.062-.01.062-.009.062-.007.063-.006.063-.004.064-.002.064-.001.065.001.065.002.064.004.064.006.063.007.063.009.062.01.062.012.062.013.06.015.06.016.059.017.059.019.058.02.057.022.058.023.056.025.056.025.054.027.055.028.053.03.053.031.052.032.051.033.051.034.049.035.049.037.047.038.047.039.046.04.045.041.044.042.043.043.042.044.041.045.04.046.039.047.038.047.036.049.036.05.034.05.033.051.032.052.031.053.03.053.028.054.027.055.025.056.025.056.023.057.021.058.021.058.019.059.017.059.016.06.015.061.013.061.012.061.01.063.009.063.007.063.006.064.004.064.002.065.001.065-.001.064-.002.064-.004.063-.006.063-.007.063-.009.061-.01.061-.012.061-.013.06-.015.059-.016.059-.017.058-.019.058-.021.057-.021.056-.023.055-.024.056-.026.054-.027.053-.028.053-.03.052-.03.051-.033.05-.033.05-.034.049-.036.047-.036.047-.038.046-.039.045-.04.044-.041.043-.042.042-.043.041-.044.04-.045.039-.046.038-.047.036-.047.036-.049.034-.05.033-.05.033-.051.03-.052.03-.053.028-.053.027-.055.026-.055.024-.055.023-.056.021-.057.021-.058.019-.058.017-.059.016-.059.015-.06.013-.061.012-.061.01-.062.009-.062.007-.063.006-.063.004-.063.002-.065.001-.065-.001-.065-.002-.065-.004-.063-.006-.063-.007-.063-.009-.062-.01-.062-.012-.061-.013-.061-.015-.06-.016-.059-.017-.059-.019-.058-.021-.058-.021-.057-.023-.056-.024-.055-.026-.055-.027-.055-.028-.053-.03-.053-.03-.052-.033-.051-.033-.05-.034-.05-.036-.049-.036-.047-.038-.047-.039-.046-.04-.045-.041-.044-.042-.043-.043-.042-.044-.041-.045-.04-.046-.039-.047-.038-.047-.036-.049-.036-.05-.034-.05-.033-.051-.032-.052-.031-.053-.03-.053-.028-.054-.027-.056-.026-.055-.024-.056-.023-.057-.021-.058-.021-.058-.019-.059-.017-.059-.016-.06-.015-.061-.013-.061-.012-.061-.01-.063-.009-.063-.007-.063-.006-.064-.004-.064-.002-.065-.001-.065.001z" fill="#fff" fill-opacity=".345"/></g><g serif:id="v"><circle cx="914.5" cy="216.5" r="3.5" fill="#4a449d"/><circle cx="914.5" cy="216.5" r="3.5" fill="#fff" fill-opacity=".102"/><path d="M914.59 213.001l.09.004.089.005.089.008.088.01.087.012.086.015.086.016.085.019.084.02.084.023.082.024.082.027.081.029.08.03.079.032.078.034.077.036.076.038.075.04.074.041.072.043.072.045.07.046.07.048.068.05.066.051.066.053.064.054.063.056.061.057.06.059.059.06.057.061.056.063.054.064.053.066.051.066.05.068.048.07.046.07.045.072.043.072.041.074.04.075.038.076.036.077.034.078.032.079.03.08.029.081.027.082.024.082.023.084.02.084.019.085.016.086.015.086.012.087.01.088.008.089.005.089.004.09.001.09-.001.09-.004.09-.005.089-.008.089-.01.088-.012.087-.015.086-.016.086-.019.085-.02.084-.023.084-.024.082-.027.082-.029.081-.03.08-.032.079-.034.078-.036.077-.038.076-.04.075-.041.074-.043.072-.045.072-.046.07-.048.07-.05.068-.051.066-.053.066-.054.064-.056.063-.057.061-.059.06-.06.059-.061.057-.063.056-.064.054-.066.053-.066.051-.068.05-.07.048-.07.046-.072.045-.072.043-.074.041-.075.04-.076.038-.077.036-.078.034-.079.032-.08.03-.081.029-.082.027-.082.024-.084.023-.084.02-.085.019-.086.016-.086.015-.087.012-.088.01-.089.008-.089.005-.09.004-.09.001-.09-.001-.09-.004-.089-.005-.089-.008-.088-.01-.087-.012-.086-.015-.086-.016-.085-.019-.084-.02-.084-.023-.082-.024-.082-.027-.081-.029-.08-.03-.079-.032-.078-.034-.077-.036-.076-.038-.075-.04-.074-.041-.072-.043-.072-.045-.07-.046-.07-.048-.068-.05-.066-.051-.066-.053-.064-.054-.063-.056-.061-.057-.06-.059-.059-.06-.057-.061-.056-.063-.054-.064-.053-.066-.051-.066-.05-.068-.048-.07-.046-.07-.045-.072-.043-.072-.041-.074-.04-.075-.038-.076-.036-.077-.034-.078-.032-.079-.03-.08-.029-.081-.027-.082-.024-.082-.023-.084-.02-.084-.019-.085-.016-.086-.015-.086-.012-.087-.01-.088-.008-.089-.005-.089-.004-.09-.001-.09.001-.09.004-.09.005-.089.008-.089.01-.088.012-.087.015-.086.016-.086.019-.085.02-.084.023-.084.024-.082.027-.082.029-.081.03-.08.032-.079.034-.078.036-.077.038-.076.04-.075.041-.074.043-.072.045-.072.046-.07.048-.07.05-.068.051-.066.053-.066.054-.064.056-.063.057-.061.059-.06.06-.059.061-.057.063-.056.064-.054.066-.053.066-.051.068-.05.07-.048.07-.046.072-.045.072-.043.074-.041.075-.04.076-.038.077-.036.078-.034.079-.032.08-.03.081-.029.082-.027.082-.024.084-.023.084-.02.085-.019.086-.016.086-.015.087-.012.088-.01.089-.008.089-.005.09-.004.09-.001.09.001zm-.155 1l-.064.002-.064.004-.063.006-.063.007-.062.009-.062.01-.061.012-.061.013-.06.015-.059.016-.059.017-.058.019-.058.021-.057.021-.056.023-.056.025-.054.025-.055.027-.053.028-.053.03-.052.031-.051.032-.05.033-.05.034-.048.036-.048.036-.047.038-.046.039-.045.04-.044.041-.043.042-.042.043-.041.044-.04.045-.039.046-.038.047-.036.047-.036.049-.034.05-.033.05-.032.051-.031.052-.03.053-.028.053-.027.054-.025.055-.025.056-.023.056-.022.058-.02.057-.019.058-.017.059-.016.059-.015.06-.013.061-.012.061-.01.061-.009.062-.007.064-.006.063-.004.064-.002.064-.001.065.001.065.002.064.004.064.006.063.007.064.009.062.01.061.012.061.013.061.015.06.016.059.017.059.019.058.02.057.022.058.023.056.025.056.025.055.027.054.028.053.03.053.031.052.032.051.033.05.034.05.036.049.036.047.038.047.039.046.04.045.041.044.042.043.043.042.044.041.045.04.046.039.047.038.048.036.048.036.05.034.05.033.051.032.052.031.053.03.053.028.055.027.054.025.056.025.056.023.057.021.058.021.058.019.059.017.059.016.06.015.061.013.061.012.062.01.062.009.063.007.063.006.064.004.064.002.065.001.065-.001.064-.002.064-.004.064-.006.062-.007.062-.009.062-.01.061-.012.061-.013.06-.015.059-.016.059-.017.058-.019.058-.021.057-.021.056-.023.055-.024.056-.026.054-.027.053-.028.053-.03.052-.031.051-.032.05-.033.05-.034.048-.036.048-.036.047-.038.046-.039.045-.04.044-.041.043-.042.042-.043.041-.044.04-.045.039-.046.038-.047.036-.047.036-.049.034-.05.034-.05.031-.051.031-.052.03-.053.028-.053.027-.054.026-.056.024-.055.023-.056.021-.057.021-.058.019-.058.017-.059.016-.059.015-.06.013-.061.012-.061.01-.062.009-.061.007-.063.006-.064.004-.064.002-.064.001-.065-.001-.065-.002-.064-.004-.064-.006-.064-.007-.063-.009-.061-.01-.062-.012-.061-.013-.061-.015-.06-.016-.059-.017-.059-.019-.058-.021-.058-.021-.057-.023-.056-.024-.055-.026-.056-.027-.054-.028-.053-.03-.053-.031-.052-.031-.051-.034-.05-.034-.05-.036-.049-.036-.047-.038-.047-.039-.046-.04-.045-.041-.044-.042-.043-.043-.042-.044-.041-.045-.04-.046-.039-.047-.038-.048-.036-.048-.036-.05-.034-.05-.033-.051-.032-.052-.031-.053-.03-.053-.028-.054-.027-.056-.026-.055-.024-.056-.023-.057-.021-.058-.021-.058-.019-.059-.017-.059-.016-.06-.015-.061-.013-.061-.012-.062-.01-.062-.009-.062-.007-.064-.006-.064-.004-.064-.002-.065-.001-.065.001z" fill="#fff" fill-opacity=".345"/></g><g serif:id="v"><circle cx="1155.5" cy="198.5" r="3.5" fill="#4a449d"/><circle cx="1155.5" cy="198.5" r="3.5" fill="#fff" fill-opacity=".102"/><path d="M1155.59 195.001l.09.004.089.005.089.008.088.01.087.012.086.015.086.016.085.019.084.02.084.023.082.024.082.027.081.029.08.03.079.032.078.034.077.036.076.038.075.04.074.041.072.043.072.045.07.046.07.048.068.05.066.051.066.053.064.054.063.056.061.057.06.059.059.06.057.061.056.063.054.064.053.066.051.066.05.068.048.07.046.07.045.072.043.072.041.074.04.075.038.076.036.077.034.078.032.079.03.08.029.081.027.082.024.082.023.084.02.084.019.085.016.086.015.086.012.087.01.088.008.089.005.089.004.09.001.09-.001.09-.004.09-.005.089-.008.089-.01.088-.012.087-.015.086-.016.086-.019.085-.02.084-.023.084-.024.082-.027.082-.029.081-.03.08-.032.079-.034.078-.036.077-.038.076-.04.075-.041.074-.043.072-.045.072-.046.07-.048.07-.05.068-.051.066-.053.066-.054.064-.056.063-.057.061-.059.06-.06.059-.061.057-.063.056-.064.054-.066.053-.066.051-.068.05-.07.048-.07.046-.072.045-.072.043-.074.041-.075.04-.076.038-.077.036-.078.034-.079.032-.08.03-.081.029-.082.027-.082.024-.084.023-.084.02-.085.019-.086.016-.086.015-.087.012-.088.01-.089.008-.089.005-.09.004-.09.001-.09-.001-.09-.004-.089-.005-.089-.008-.088-.01-.087-.012-.086-.015-.086-.016-.085-.019-.084-.02-.084-.023-.082-.024-.082-.027-.081-.029-.08-.03-.079-.032-.078-.034-.077-.036-.076-.038-.075-.04-.074-.041-.072-.043-.072-.045-.07-.046-.07-.048-.068-.05-.066-.051-.066-.053-.064-.054-.063-.056-.061-.057-.06-.059-.059-.06-.057-.061-.056-.063-.054-.064-.053-.066-.051-.066-.05-.068-.048-.07-.046-.07-.045-.072-.043-.072-.041-.074-.04-.075-.038-.076-.036-.077-.034-.078-.032-.079-.03-.08-.029-.081-.027-.082-.024-.082-.023-.084-.02-.084-.019-.085-.016-.086-.015-.086-.012-.087-.01-.088-.008-.089-.005-.089-.004-.09-.001-.09.001-.09.004-.09.005-.089.008-.089.01-.088.012-.087.015-.086.016-.086.019-.085.02-.084.023-.084.024-.082.027-.082.029-.081.03-.08.032-.079.034-.078.036-.077.038-.076.04-.075.041-.074.043-.072.045-.072.046-.07.048-.07.05-.068.051-.066.053-.066.054-.064.056-.063.057-.061.059-.06.06-.059.061-.057.063-.056.064-.054.066-.053.066-.051.068-.05.07-.048.07-.046.072-.045.072-.043.074-.041.075-.04.076-.038.077-.036.078-.034.079-.032.08-.03.081-.029.082-.027.082-.024.084-.023.084-.02.085-.019.086-.016.086-.015.087-.012.088-.01.089-.008.089-.005.09-.004.09-.001.09.001zm-.155 1l-.064.002-.064.004-.064.006-.062.007-.062.009-.062.01-.061.012-.061.013-.06.015-.059.016-.059.017-.058.019-.058.021-.057.021-.056.023-.055.024-.056.026-.054.027-.053.028-.053.03-.052.031-.051.032-.05.033-.05.034-.048.036-.048.036-.047.038-.046.039-.045.04-.044.041-.043.042-.042.043-.041.044-.04.045-.039.046-.038.047-.036.047-.036.049-.034.05-.034.05-.031.051-.031.052-.03.053-.028.053-.027.055-.026.055-.024.055-.023.056-.021.057-.021.058-.019.058-.017.059-.016.059-.015.06-.013.061-.012.061-.01.062-.009.061-.007.063-.006.064-.004.064-.002.064-.001.065.001.065.002.064.004.064.006.064.007.063.009.061.01.062.012.061.013.061.015.06.016.059.017.059.019.058.021.058.021.057.023.056.024.055.026.056.027.054.028.053.03.053.031.052.031.051.034.05.034.05.036.049.036.047.038.047.039.046.04.045.041.044.042.043.043.042.044.041.045.04.046.039.047.038.048.036.048.036.05.034.05.033.051.032.052.031.053.03.053.028.054.027.056.026.055.024.056.023.057.021.058.021.058.019.059.017.059.016.06.015.061.013.061.012.061.01.063.009.063.007.063.006.064.004.064.002.065.001.065-.001.064-.002.064-.004.063-.006.063-.007.063-.009.061-.01.061-.012.061-.013.06-.015.059-.016.059-.017.058-.019.058-.021.057-.021.056-.023.056-.025.054-.025.055-.027.053-.028.053-.03.052-.031.051-.032.05-.033.05-.034.048-.036.048-.036.047-.038.046-.039.045-.04.044-.041.043-.042.042-.043.041-.044.04-.045.039-.046.038-.047.036-.047.036-.049.034-.05.033-.05.032-.051.031-.052.03-.053.028-.053.027-.054.025-.055.025-.056.023-.056.022-.058.02-.057.019-.058.017-.059.016-.059.015-.06.013-.061.012-.061.01-.061.009-.062.007-.064.006-.063.004-.064.002-.064.001-.065-.001-.065-.002-.064-.004-.064-.006-.063-.007-.064-.009-.062-.01-.061-.012-.061-.013-.061-.015-.06-.016-.059-.017-.059-.019-.058-.02-.057-.022-.058-.023-.056-.025-.056-.025-.054-.027-.055-.028-.053-.03-.053-.031-.052-.032-.051-.033-.05-.034-.05-.036-.049-.036-.047-.038-.047-.039-.046-.04-.045-.041-.044-.042-.043-.043-.042-.044-.041-.045-.04-.046-.039-.047-.038-.048-.036-.048-.036-.05-.034-.05-.033-.051-.032-.052-.031-.053-.03-.053-.028-.055-.027-.054-.025-.056-.025-.056-.023-.057-.021-.058-.021-.058-.019-.059-.017-.059-.016-.06-.015-.061-.013-.061-.012-.062-.01-.062-.009-.063-.007-.063-.006-.064-.004-.064-.002-.065-.001-.065.001z" fill="#fff" fill-opacity=".345"/></g><g serif:id="v"><circle cx="1310.5" cy="99.5" r="3.5" fill="#4a449d"/><circle cx="1310.5" cy="99.5" r="3.5" fill="#fff" fill-opacity=".102"/><path d="M1310.59 96.001l.09.004.089.005.089.008.088.01.087.012.086.015.086.016.085.019.084.02.084.023.082.024.082.027.081.029.08.03.079.032.078.034.077.036.076.038.075.04.074.041.072.043.072.045.07.046.07.048.068.05.066.051.066.053.064.054.063.056.061.057.06.059.059.06.057.061.056.063.054.064.053.066.051.066.05.068.048.07.046.07.045.072.043.072.041.074.04.075.038.076.036.077.034.078.032.079.03.08.029.081.027.082.024.082.023.084.02.084.019.085.016.086.015.086.012.087.01.088.008.089.005.089.004.09.001.09-.001.09-.004.09-.005.089-.008.089-.01.088-.012.087-.015.086-.016.086-.019.085-.02.084-.023.084-.024.082-.027.082-.029.081-.03.08-.032.079-.034.078-.036.077-.038.076-.04.075-.041.074-.043.072-.045.072-.046.07-.048.07-.05.068-.051.066-.053.066-.054.064-.056.063-.057.061-.059.06-.06.059-.061.057-.063.056-.064.054-.066.053-.066.051-.068.05-.07.048-.07.046-.072.045-.072.043-.074.041-.075.04-.076.038-.077.036-.078.034-.079.032-.08.03-.081.029-.082.027-.082.024-.084.023-.084.02-.085.019-.086.016-.086.015-.087.012-.088.01-.089.008-.089.005-.09.004-.09.001-.09-.001-.09-.004-.089-.005-.089-.008-.088-.01-.087-.012-.086-.015-.086-.016-.085-.019-.084-.02-.084-.023-.082-.024-.082-.027-.081-.029-.08-.03-.079-.032-.078-.034-.077-.036-.076-.038-.075-.04-.074-.041-.072-.043-.072-.045-.07-.046-.07-.048-.068-.05-.066-.051-.066-.053-.064-.054-.063-.056-.061-.057-.06-.059-.059-.06-.057-.061-.056-.063-.054-.064-.053-.066-.051-.066-.05-.068-.048-.07-.046-.07-.045-.072-.043-.072-.041-.074-.04-.075-.038-.076-.036-.077-.034-.078-.032-.079-.03-.08-.029-.081-.027-.082-.024-.082-.023-.084-.02-.084-.019-.085-.016-.086-.015-.086-.012-.087-.01-.088-.008-.089-.005-.089-.004-.09-.001-.09.001-.09.004-.09.005-.089.008-.089.01-.088.012-.087.015-.086.016-.086.019-.085.02-.084.023-.084.024-.082.027-.082.029-.081.03-.08.032-.079.034-.078.036-.077.038-.076.04-.075.041-.074.043-.072.045-.072.046-.07.048-.07.05-.068.051-.066.053-.066.054-.064.056-.063.057-.061.059-.06.06-.059.061-.057.063-.056.064-.054.066-.053.066-.051.068-.05.07-.048.07-.046.072-.045.072-.043.074-.041.075-.04.076-.038.077-.036.078-.034.079-.032.08-.03.081-.029.082-.027.082-.024.084-.023.084-.02.085-.019.086-.016.086-.015.087-.012.088-.01.089-.008.089-.005.09-.004.09-.001.09.001zm-.155 1l-.064.002-.064.004-.063.006-.063.007-.063.009-.061.01-.061.012-.061.013-.06.015-.059.016-.059.017-.058.019-.058.021-.057.021-.056.023-.056.025-.055.025-.053.027-.054.028-.053.03-.052.031-.051.032-.05.033-.05.034-.048.035-.048.037-.047.038-.046.039-.045.04-.044.041-.043.042-.042.043-.041.044-.04.045-.039.046-.038.047-.037.047-.035.049-.034.049-.033.051-.032.051-.031.052-.03.053-.028.053-.027.055-.025.054-.025.056-.023.056-.021.057-.021.058-.019.058-.017.059-.016.059-.015.06-.013.06-.012.062-.01.062-.009.062-.007.063-.006.063-.004.063-.002.066-.001.064.001.064.002.066.004.063.006.063.007.063.009.062.01.062.012.062.013.06.015.06.016.059.017.059.019.058.021.058.021.057.023.056.025.056.025.054.027.055.028.053.03.053.031.052.032.051.033.051.034.049.035.049.037.047.038.047.039.046.04.045.041.044.042.043.043.042.044.041.045.04.046.039.047.038.047.036.049.036.05.034.05.033.051.032.052.031.053.03.053.028.054.027.055.025.056.025.056.023.057.021.058.021.058.019.059.017.059.016.06.015.061.013.061.012.061.01.063.009.063.007.063.006.064.004.064.002.065.001.065-.001.064-.002.064-.004.063-.006.063-.007.063-.009.061-.01.061-.012.061-.013.06-.015.059-.016.059-.017.058-.019.058-.021.057-.021.056-.023.056-.025.055-.025.054-.027.053-.028.053-.03.052-.03.051-.033.05-.033.05-.034.049-.036.047-.036.047-.038.046-.039.045-.04.044-.041.043-.042.042-.043.041-.044.04-.045.039-.046.038-.046.037-.049.035-.048.034-.049.033-.051.032-.051.031-.052.03-.053.028-.053.027-.055.026-.055.024-.055.023-.056.021-.057.021-.058.019-.058.017-.059.016-.059.015-.06.013-.061.012-.061.01-.062.009-.062.007-.063.006-.063.004-.063.002-.065.001-.065-.001-.065-.002-.065-.004-.063-.006-.063-.007-.063-.009-.062-.01-.062-.012-.061-.013-.061-.015-.06-.016-.059-.017-.059-.019-.058-.021-.058-.021-.057-.023-.056-.024-.055-.026-.055-.027-.055-.028-.053-.03-.053-.031-.052-.032-.051-.033-.051-.034-.049-.035-.048-.037-.049-.038-.046-.039-.046-.04-.045-.041-.044-.042-.043-.043-.042-.044-.041-.045-.04-.046-.039-.047-.038-.047-.036-.049-.036-.05-.034-.05-.033-.051-.032-.052-.031-.053-.03-.054-.028-.053-.027-.055-.025-.056-.025-.056-.023-.057-.021-.058-.021-.058-.019-.059-.017-.059-.016-.06-.015-.061-.013-.061-.012-.061-.01-.063-.009-.063-.007-.063-.006-.064-.004-.064-.002-.065-.001-.065.001z" fill="#fff" fill-opacity=".345"/></g><g serif:id="v"><circle cx="1034.5" cy="291.5" r="3.5" fill="#4a449d"/><circle cx="1034.5" cy="291.5" r="3.5" fill="#fff" fill-opacity=".102"/><path d="M1034.59 288.001l.09.004.089.005.089.008.088.01.087.012.086.015.086.016.085.019.084.02.084.023.082.024.082.027.081.029.08.03.079.032.078.034.077.036.076.038.075.04.074.041.072.043.072.045.07.046.07.048.068.05.066.051.066.053.064.054.063.056.061.057.06.059.059.06.057.061.056.063.054.064.053.066.051.066.05.068.048.07.046.07.045.072.043.072.041.074.04.075.038.076.036.077.034.078.032.079.03.08.029.081.027.082.024.082.023.084.02.084.019.085.016.086.015.086.012.087.01.088.008.089.005.089.004.09.001.09-.001.09-.004.09-.005.089-.008.089-.01.088-.012.087-.015.086-.016.086-.019.085-.02.084-.023.084-.024.082-.027.082-.029.081-.03.08-.032.079-.034.078-.036.077-.038.076-.04.075-.041.074-.043.072-.045.072-.046.07-.048.07-.05.068-.051.066-.053.066-.054.064-.056.063-.057.061-.059.06-.06.059-.061.057-.063.056-.064.054-.066.053-.066.051-.068.05-.07.048-.07.046-.072.045-.072.043-.074.041-.075.04-.076.038-.077.036-.078.034-.079.032-.08.03-.081.029-.082.027-.082.024-.084.023-.084.02-.085.019-.086.016-.086.015-.087.012-.088.01-.089.008-.089.005-.09.004-.09.001-.09-.001-.09-.004-.089-.005-.089-.008-.088-.01-.087-.012-.086-.015-.086-.016-.085-.019-.084-.02-.084-.023-.082-.024-.082-.027-.081-.029-.08-.03-.079-.032-.078-.034-.077-.036-.076-.038-.075-.04-.074-.041-.072-.043-.072-.045-.07-.046-.07-.048-.068-.05-.066-.051-.066-.053-.064-.054-.063-.056-.061-.057-.06-.059-.059-.06-.057-.061-.056-.063-.054-.064-.053-.066-.051-.066-.05-.068-.048-.07-.046-.07-.045-.072-.043-.072-.041-.074-.04-.075-.038-.076-.036-.077-.034-.078-.032-.079-.03-.08-.029-.081-.027-.082-.024-.082-.023-.084-.02-.084-.019-.085-.016-.086-.015-.086-.012-.087-.01-.088-.008-.089-.005-.089-.004-.09-.001-.09.001-.09.004-.09.005-.089.008-.089.01-.088.012-.087.015-.086.016-.086.019-.085.02-.084.023-.084.024-.082.027-.082.029-.081.03-.08.032-.079.034-.078.036-.077.038-.076.04-.075.041-.074.043-.072.045-.072.046-.07.048-.07.05-.068.051-.066.053-.066.054-.064.056-.063.057-.061.059-.06.06-.059.061-.057.063-.056.064-.054.066-.053.066-.051.068-.05.07-.048.07-.046.072-.045.072-.043.074-.041.075-.04.076-.038.077-.036.078-.034.079-.032.08-.03.081-.029.082-.027.082-.024.084-.023.084-.02.085-.019.086-.016.086-.015.087-.012.088-.01.089-.008.089-.005.09-.004.09-.001.09.001zm-.155 1l-.064.002-.064.004-.063.006-.063.007-.063.009-.061.01-.061.012-.061.013-.06.015-.059.016-.059.017-.058.019-.058.02-.057.022-.056.023-.055.024-.056.026-.054.027-.053.028-.053.03-.052.031-.051.031-.05.034-.05.034-.049.036-.047.036-.047.038-.046.039-.045.04-.044.041-.043.042-.042.043-.041.044-.04.045-.039.046-.038.047-.036.047-.036.049-.034.05-.033.05-.033.051-.03.052-.03.053-.028.053-.027.055-.026.055-.024.055-.023.056-.021.057-.021.058-.019.058-.017.059-.016.059-.015.06-.013.061-.012.061-.01.062-.009.062-.007.063-.006.063-.004.063-.002.065-.001.065.001.065.002.065.004.063.006.063.007.063.009.062.01.062.012.061.013.061.015.06.016.059.017.059.019.058.021.058.021.057.023.056.024.055.026.055.027.055.028.053.03.053.03.052.033.051.033.05.034.05.036.048.036.048.038.047.039.046.04.045.041.044.042.043.043.042.044.041.045.04.046.039.047.038.047.036.049.036.05.034.05.033.051.032.052.031.053.03.053.028.054.027.056.026.055.024.056.023.057.021.058.021.058.019.058.017.06.016.06.015.061.013.061.012.061.01.063.009.063.007.063.006.064.004.064.002.065.001.065-.001.064-.002.064-.004.063-.006.063-.007.063-.009.061-.01.061-.012.061-.013.06-.015.059-.016.059-.017.058-.019.058-.021.057-.021.056-.023.056-.025.054-.025.055-.027.053-.028.053-.03.052-.031.051-.032.05-.033.05-.034.049-.036.047-.036.047-.038.046-.039.045-.04.044-.041.043-.042.042-.043.041-.044.04-.045.039-.046.038-.047.037-.048.035-.048.034-.049.033-.051.032-.051.031-.052.03-.053.028-.053.027-.055.025-.054.025-.056.023-.056.022-.057.02-.058.019-.058.017-.059.016-.059.015-.06.013-.06.012-.062.01-.062.009-.062.007-.063.006-.063.004-.064.002-.064.001-.065-.001-.065-.002-.064-.004-.064-.006-.063-.007-.063-.009-.062-.01-.062-.012-.062-.013-.06-.015-.06-.016-.059-.017-.059-.019-.058-.02-.057-.022-.058-.023-.056-.025-.056-.025-.054-.027-.055-.028-.053-.03-.053-.03-.052-.033-.051-.033-.051-.034-.049-.036-.049-.036-.047-.038-.047-.039-.046-.04-.045-.041-.044-.042-.043-.043-.042-.044-.041-.045-.04-.046-.039-.047-.038-.047-.036-.049-.036-.05-.034-.05-.034-.051-.031-.052-.031-.053-.03-.053-.028-.055-.027-.054-.025-.056-.025-.056-.023-.057-.021-.058-.021-.058-.019-.059-.017-.059-.016-.06-.015-.061-.013-.061-.012-.061-.01-.063-.009-.063-.007-.063-.006-.064-.004-.064-.002-.065-.001-.065.001z" fill="#fff" fill-opacity=".345"/></g><g serif:id="v"><circle cx="792" cy="295" r="3.5" fill="#4a449d"/><circle cx="792" cy="295" r="3.5" fill="#fff" fill-opacity=".102"/><path d="M792.09 291.501l.09.004.089.005.089.008.088.01.087.012.086.015.086.016.085.019.084.02.084.023.082.024.082.027.081.029.08.03.079.032.078.034.077.036.076.038.075.04.074.041.072.043.072.045.07.046.07.048.068.05.066.051.066.053.064.054.063.056.061.057.06.059.059.06.057.061.056.063.054.064.053.066.051.066.05.068.048.07.046.07.045.072.043.072.041.074.04.075.038.076.036.077.034.078.032.079.03.08.029.081.027.082.024.082.023.084.02.084.019.085.016.086.015.086.012.087.01.088.008.089.005.089.004.09.001.09-.001.09-.004.09-.005.089-.008.089-.01.088-.012.087-.015.086-.016.086-.019.085-.02.084-.023.084-.024.082-.027.082-.029.081-.03.08-.032.079-.034.078-.036.077-.038.076-.04.075-.041.074-.043.072-.045.072-.046.07-.048.07-.05.068-.051.066-.053.066-.054.064-.056.063-.057.061-.059.06-.06.059-.061.057-.063.056-.064.054-.066.053-.066.051-.068.05-.07.048-.07.046-.072.045-.072.043-.074.041-.075.04-.076.038-.077.036-.078.034-.079.032-.08.03-.081.029-.082.027-.082.024-.084.023-.084.02-.085.019-.086.016-.086.015-.087.012-.088.01-.089.008-.089.005-.09.004-.09.001-.09-.001-.09-.004-.089-.005-.089-.008-.088-.01-.087-.012-.086-.015-.086-.016-.085-.019-.084-.02-.084-.023-.082-.024-.082-.027-.081-.029-.08-.03-.079-.032-.078-.034-.077-.036-.076-.038-.075-.04-.074-.041-.072-.043-.072-.045-.07-.046-.07-.048-.068-.05-.066-.051-.066-.053-.064-.054-.063-.056-.061-.057-.06-.059-.059-.06-.057-.061-.056-.063-.054-.064-.053-.066-.051-.066-.05-.068-.048-.07-.046-.07-.045-.072-.043-.072-.041-.074-.04-.075-.038-.076-.036-.077-.034-.078-.032-.079-.03-.08-.029-.081-.027-.082-.024-.082-.023-.084-.02-.084-.019-.085-.016-.086-.015-.086-.012-.087-.01-.088-.008-.089-.005-.089-.004-.09-.001-.09.001-.09.004-.09.005-.089.008-.089.01-.088.012-.087.015-.086.016-.086.019-.085.02-.084.023-.084.024-.082.027-.082.029-.081.03-.08.032-.079.034-.078.036-.077.038-.076.04-.075.041-.074.043-.072.045-.072.046-.07.048-.07.05-.068.051-.066.053-.066.054-.064.056-.063.057-.061.059-.06.06-.059.061-.057.063-.056.064-.054.066-.053.066-.051.068-.05.07-.048.07-.046.072-.045.072-.043.074-.041.075-.04.076-.038.077-.036.078-.034.079-.032.08-.03.081-.029.082-.027.082-.024.084-.023.084-.02.085-.019.086-.016.086-.015.087-.012.088-.01.089-.008.089-.005.09-.004.09-.001.09.001zm-.155 1l-.064.002-.064.004-.063.006-.063.007-.063.009-.061.01-.061.012-.061.013-.06.015-.059.016-.059.017-.058.019-.058.021-.057.021-.056.023-.056.025-.054.025-.055.027-.053.028-.053.03-.052.031-.051.031-.05.034-.05.034-.048.036-.048.036-.047.038-.046.039-.045.04-.044.041-.043.042-.042.043-.041.044-.04.045-.039.046-.038.047-.036.047-.036.049-.034.05-.033.05-.032.051-.031.052-.03.053-.028.053-.027.055-.025.054-.025.056-.023.056-.022.058-.02.057-.019.058-.017.059-.016.059-.015.06-.013.061-.012.061-.01.061-.009.062-.007.064-.006.063-.004.064-.002.064-.001.065.001.065.002.064.004.064.006.063.007.064.009.062.01.061.012.061.013.061.015.06.016.059.017.059.019.058.02.058.022.057.023.056.025.056.025.054.027.055.028.053.03.053.031.052.032.051.033.05.034.05.036.048.036.048.038.047.039.046.04.045.041.044.042.043.043.042.044.041.045.04.046.039.047.038.048.036.048.036.05.034.05.033.051.032.052.031.053.03.053.028.055.027.054.025.056.025.056.023.057.021.058.021.058.019.059.017.059.016.06.015.061.013.061.012.061.01.063.009.063.007.063.006.064.004.064.002.065.001.065-.001.064-.002.064-.004.063-.006.063-.007.063-.009.061-.01.061-.012.061-.013.06-.015.059-.016.059-.017.058-.019.058-.021.057-.021.056-.023.055-.024.056-.026.054-.027.053-.028.053-.03.052-.031.051-.032.05-.033.05-.034.048-.036.048-.036.047-.038.046-.039.045-.04.044-.041.044-.042.041-.043.041-.044.04-.045.039-.046.038-.047.036-.048.036-.048.034-.05.034-.05.031-.051.031-.052.03-.053.028-.053.027-.055.026-.055.024-.055.023-.056.021-.057.021-.058.019-.058.017-.059.016-.059.015-.06.013-.061.012-.061.01-.062.009-.061.007-.063.006-.064.004-.064.002-.064.001-.065-.001-.065-.002-.064-.004-.064-.006-.064-.007-.063-.009-.061-.01-.062-.012-.061-.013-.061-.015-.06-.016-.059-.017-.059-.019-.058-.021-.058-.021-.057-.023-.056-.025-.055-.025-.055-.027-.055-.028-.053-.03-.053-.031-.052-.031-.051-.034-.05-.034-.05-.036-.049-.036-.047-.038-.047-.039-.046-.04-.045-.041-.044-.042-.043-.043-.042-.044-.041-.045-.04-.046-.039-.046-.038-.049-.036-.048-.036-.05-.034-.05-.034-.051-.031-.052-.031-.053-.03-.053-.028-.054-.027-.056-.026-.055-.024-.056-.023-.057-.022-.057-.02-.059-.019-.059-.017-.059-.016-.06-.015-.061-.013-.061-.012-.061-.01-.063-.009-.063-.007-.063-.006-.064-.004-.064-.002-.065-.001-.065.001z" fill="#fff" fill-opacity=".345"/></g><g serif:id="v"><circle cx="636.5" cy="356.5" r="3.5" fill="#4a449d"/><circle cx="636.5" cy="356.5" r="3.5" fill="#fff" fill-opacity=".102"/><path d="M636.59 353.001l.09.004.089.005.089.008.088.01.087.012.086.015.086.016.085.019.084.02.084.023.082.024.082.027.081.029.08.03.079.032.078.034.077.036.076.038.075.04.074.041.072.043.072.045.07.046.07.048.068.05.066.051.066.053.064.054.063.056.061.057.06.059.059.06.057.061.056.063.054.064.053.066.051.066.05.068.048.07.046.07.045.072.043.072.041.074.04.075.038.076.036.077.034.078.032.079.03.08.029.081.027.082.024.082.023.084.02.084.019.085.016.086.015.086.012.087.01.088.008.089.005.089.004.09.001.09-.001.09-.004.09-.005.089-.008.089-.01.088-.012.087-.015.086-.016.086-.019.085-.02.084-.023.084-.024.082-.027.082-.029.081-.03.08-.032.079-.034.078-.036.077-.038.076-.04.075-.041.074-.043.072-.045.072-.046.07-.048.07-.05.068-.051.066-.053.066-.054.064-.056.063-.057.061-.059.06-.06.059-.061.057-.063.056-.064.054-.066.053-.066.051-.068.05-.07.048-.07.046-.072.045-.072.043-.074.041-.075.04-.076.038-.077.036-.078.034-.079.032-.08.03-.081.029-.082.027-.082.024-.084.023-.084.02-.085.019-.086.016-.086.015-.087.012-.088.01-.089.008-.089.005-.09.004-.09.001-.09-.001-.09-.004-.089-.005-.089-.008-.088-.01-.087-.012-.086-.015-.086-.016-.085-.019-.084-.02-.084-.023-.082-.024-.082-.027-.081-.029-.08-.03-.079-.032-.078-.034-.077-.036-.076-.038-.075-.04-.074-.041-.072-.043-.072-.045-.07-.046-.07-.048-.068-.05-.066-.051-.066-.053-.064-.054-.063-.056-.061-.057-.06-.059-.059-.06-.057-.061-.056-.063-.054-.064-.053-.066-.051-.066-.05-.068-.048-.07-.046-.07-.045-.072-.043-.072-.041-.074-.04-.075-.038-.076-.036-.077-.034-.078-.032-.079-.03-.08-.029-.081-.027-.082-.024-.082-.023-.084-.02-.084-.019-.085-.016-.086-.015-.086-.012-.087-.01-.088-.008-.089-.005-.089-.004-.09-.001-.09.001-.09.004-.09.005-.089.008-.089.01-.088.012-.087.015-.086.016-.086.019-.085.02-.084.023-.084.024-.082.027-.082.029-.081.03-.08.032-.079.034-.078.036-.077.038-.076.04-.075.041-.074.043-.072.045-.072.046-.07.048-.07.05-.068.051-.066.053-.066.054-.064.056-.063.057-.061.059-.06.06-.059.061-.057.063-.056.064-.054.066-.053.066-.051.068-.05.07-.048.07-.046.072-.045.072-.043.074-.041.075-.04.076-.038.077-.036.078-.034.079-.032.08-.03.081-.029.082-.027.082-.024.084-.023.084-.02.085-.019.086-.016.086-.015.087-.012.088-.01.089-.008.089-.005.09-.004.09-.001.09.001zm-.155 1l-.064.002-.064.004-.063.006-.063.007-.063.009-.061.01-.061.012-.061.013-.06.015-.059.016-.059.017-.058.019-.058.021-.057.021-.056.023-.056.025-.055.025-.054.027-.053.028-.053.03-.052.031-.051.032-.05.033-.05.034-.049.036-.047.036-.047.038-.046.039-.045.04-.044.041-.043.042-.042.043-.041.044-.04.045-.039.046-.038.047-.037.048-.035.048-.034.05-.034.05-.031.051-.031.052-.03.053-.028.053-.027.055-.025.054-.025.056-.023.056-.021.057-.021.058-.019.058-.017.059-.016.059-.015.06-.013.061-.012.061-.01.061-.009.063-.007.063-.006.063-.004.064-.002.064-.001.065.001.065.002.064.004.064.006.063.007.063.009.063.01.061.012.061.013.061.015.06.016.059.017.059.019.058.021.058.021.057.023.056.025.056.025.054.027.055.028.053.03.053.031.052.031.051.034.05.034.05.035.048.037.048.038.047.039.046.04.045.041.044.042.043.043.042.044.041.045.04.046.039.047.038.047.036.049.036.05.034.05.033.051.032.052.031.053.03.053.028.054.027.055.025.056.025.056.023.057.021.058.021.058.019.059.017.059.016.06.015.061.013.061.012.061.01.063.009.063.007.063.006.064.004.064.002.065.001.065-.001.064-.002.064-.004.063-.006.063-.007.063-.009.061-.01.061-.012.061-.013.06-.015.059-.016.059-.017.058-.019.058-.021.057-.021.056-.023.056-.025.055-.025.054-.027.053-.028.053-.03.052-.031.051-.032.05-.033.05-.034.048-.036.048-.036.047-.038.046-.039.045-.04.044-.041.043-.042.042-.043.041-.044.04-.045.039-.046.038-.047.037-.047.035-.049.034-.05.033-.05.032-.051.031-.052.03-.053.028-.053.027-.055.025-.054.025-.056.023-.056.021-.057.021-.058.019-.058.017-.059.016-.059.015-.06.013-.061.012-.061.01-.061.009-.063.007-.063.006-.063.004-.064.002-.064.001-.065-.001-.065-.002-.064-.004-.064-.006-.063-.007-.063-.009-.063-.01-.061-.012-.061-.013-.061-.015-.06-.016-.059-.017-.059-.019-.058-.021-.058-.021-.057-.023-.056-.025-.056-.025-.054-.027-.055-.028-.053-.03-.053-.031-.052-.032-.051-.033-.05-.034-.05-.035-.049-.037-.047-.038-.047-.039-.046-.04-.045-.041-.044-.042-.043-.043-.042-.044-.041-.045-.04-.046-.039-.047-.038-.048-.036-.048-.036-.05-.034-.05-.033-.051-.032-.052-.031-.053-.03-.053-.028-.054-.027-.055-.025-.056-.025-.056-.023-.057-.021-.058-.021-.058-.019-.059-.017-.059-.016-.06-.015-.061-.013-.061-.012-.061-.01-.063-.009-.063-.007-.063-.006-.064-.004-.064-.002-.065-.001-.065.001z" fill="#fff" fill-opacity=".345"/></g><g serif:id="v"><circle cx="572" cy="342.5" r="3.5" fill="#4a449d"/><circle cx="572" cy="342.5" r="3.5" fill="#fff" fill-opacity=".102"/><path d="M572.09 339.001l.09.004.089.005.089.008.088.01.087.012.086.015.086.016.085.019.084.02.084.023.082.024.082.027.081.029.08.03.079.032.078.034.077.036.076.038.075.04.074.041.072.043.072.045.07.046.07.048.068.05.066.051.066.053.064.054.063.056.061.057.06.059.059.06.057.061.056.063.054.064.053.066.051.066.05.068.048.07.046.07.045.072.043.072.041.074.04.075.038.076.036.077.034.078.032.079.03.08.029.081.027.082.024.082.023.084.02.084.019.085.016.086.015.086.012.087.01.088.008.089.005.089.004.09.001.09-.001.09-.004.09-.005.089-.008.089-.01.088-.012.087-.015.086-.016.086-.019.085-.02.084-.023.084-.024.082-.027.082-.029.081-.03.08-.032.079-.034.078-.036.077-.038.076-.04.075-.041.074-.043.072-.045.072-.046.07-.048.07-.05.068-.051.066-.053.066-.054.064-.056.063-.057.061-.059.06-.06.059-.061.057-.063.056-.064.054-.066.053-.066.051-.068.05-.07.048-.07.046-.072.045-.072.043-.074.041-.075.04-.076.038-.077.036-.078.034-.079.032-.08.03-.081.029-.082.027-.082.024-.084.023-.084.02-.085.019-.086.016-.086.015-.087.012-.088.01-.089.008-.089.005-.09.004-.09.001-.09-.001-.09-.004-.089-.005-.089-.008-.088-.01-.087-.012-.086-.015-.086-.016-.085-.019-.084-.02-.084-.023-.082-.024-.082-.027-.081-.029-.08-.03-.079-.032-.078-.034-.077-.036-.076-.038-.075-.04-.074-.041-.072-.043-.072-.045-.07-.046-.07-.048-.068-.05-.066-.051-.066-.053-.064-.054-.063-.056-.061-.057-.06-.059-.059-.06-.057-.061-.056-.063-.054-.064-.053-.066-.051-.066-.05-.068-.048-.07-.046-.07-.045-.072-.043-.072-.041-.074-.04-.075-.038-.076-.036-.077-.034-.078-.032-.079-.03-.08-.029-.081-.027-.082-.024-.082-.023-.084-.02-.084-.019-.085-.016-.086-.015-.086-.012-.087-.01-.088-.008-.089-.005-.089-.004-.09-.001-.09.001-.09.004-.09.005-.089.008-.089.01-.088.012-.087.015-.086.016-.086.019-.085.02-.084.023-.084.024-.082.027-.082.029-.081.03-.08.032-.079.034-.078.036-.077.038-.076.04-.075.041-.074.043-.072.045-.072.046-.07.048-.07.05-.068.051-.066.053-.066.054-.064.056-.063.057-.061.059-.06.06-.059.061-.057.063-.056.064-.054.066-.053.066-.051.068-.05.07-.048.07-.046.072-.045.072-.043.074-.041.075-.04.076-.038.077-.036.078-.034.079-.032.08-.03.081-.029.082-.027.082-.024.084-.023.084-.02.085-.019.086-.016.086-.015.087-.012.088-.01.089-.008.089-.005.09-.004.09-.001.09.001zm-.155 1l-.064.002-.064.004-.063.006-.063.007-.063.009-.061.01-.061.012-.061.013-.06.015-.059.016-.059.017-.058.019-.058.021-.057.021-.056.023-.056.025-.055.025-.054.027-.053.028-.053.03-.052.031-.051.032-.05.033-.05.034-.049.036-.047.036-.047.038-.046.039-.045.04-.044.041-.043.042-.042.043-.041.044-.04.045-.039.046-.038.047-.036.047-.036.049-.034.05-.033.05-.032.051-.031.052-.03.053-.028.053-.027.055-.025.054-.025.056-.023.056-.021.057-.021.058-.019.058-.017.059-.016.059-.015.06-.013.061-.012.061-.01.061-.009.063-.007.063-.006.063-.004.064-.002.064-.001.065.001.065.002.064.004.064.006.063.007.063.009.063.01.061.012.061.013.061.015.06.016.059.017.059.019.058.021.058.021.057.023.056.025.056.025.054.027.055.028.053.03.053.031.052.032.051.033.05.034.05.036.049.036.047.038.047.039.046.04.045.041.044.042.043.043.042.044.041.045.04.046.039.047.038.047.036.049.036.05.034.05.033.051.032.052.031.053.03.053.028.054.027.055.025.056.025.056.023.057.021.058.021.058.019.059.017.059.016.06.015.061.013.061.012.061.01.063.009.063.007.063.006.064.004.064.002.065.001.065-.001.064-.002.064-.004.063-.006.063-.007.063-.009.061-.01.061-.012.061-.013.06-.015.059-.016.059-.017.058-.019.058-.021.057-.021.056-.023.056-.025.055-.025.054-.027.053-.028.053-.03.052-.031.051-.032.05-.033.05-.034.048-.036.048-.036.047-.038.046-.039.045-.04.044-.041.043-.042.042-.043.041-.044.04-.045.039-.046.038-.047.036-.047.036-.049.034-.05.033-.05.032-.051.031-.052.03-.053.028-.053.027-.055.025-.054.025-.056.023-.056.021-.057.021-.058.019-.058.017-.058.016-.06.015-.06.013-.061.012-.061.01-.062.009-.062.007-.062.006-.064.004-.064.002-.064.001-.065-.001-.065-.002-.064-.004-.064-.006-.064-.007-.062-.009-.062-.01-.062-.012-.061-.013-.061-.015-.06-.016-.06-.017-.058-.019-.058-.021-.058-.021-.057-.023-.056-.025-.056-.025-.054-.027-.055-.028-.053-.03-.053-.031-.052-.032-.051-.033-.05-.034-.05-.036-.049-.036-.047-.038-.047-.039-.046-.04-.045-.041-.044-.042-.043-.043-.042-.044-.041-.045-.04-.046-.039-.047-.038-.048-.036-.048-.036-.05-.034-.05-.033-.051-.032-.052-.031-.053-.03-.053-.028-.054-.027-.055-.025-.056-.025-.056-.023-.057-.021-.058-.021-.058-.019-.059-.017-.059-.016-.06-.015-.061-.013-.061-.012-.061-.01-.063-.009-.063-.007-.063-.006-.064-.004-.064-.002L572 340l-.065.001z" fill="#fff" fill-opacity=".345"/></g><g serif:id="v"><circle cx="477" cy="349.5" r="3.5" fill="#4a449d"/><circle cx="477" cy="349.5" r="3.5" fill="#fff" fill-opacity=".102"/><path d="M477.09 346.001l.09.004.089.005.089.008.088.01.087.012.086.015.086.016.085.019.084.02.084.023.082.024.082.027.081.029.08.03.079.032.078.034.077.036.076.038.075.04.074.041.072.043.072.045.07.046.07.048.068.05.066.051.066.053.064.054.063.056.061.057.06.059.059.06.057.061.056.063.054.064.053.066.051.066.05.068.048.07.046.07.045.072.043.072.041.074.04.075.038.076.036.077.034.078.032.079.03.08.029.081.027.082.024.082.023.084.02.084.019.085.016.086.015.086.012.087.01.088.008.089.005.089.004.09.001.09-.001.09-.004.09-.005.089-.008.089-.01.088-.012.087-.015.086-.016.086-.019.085-.02.084-.023.084-.024.082-.027.082-.029.081-.03.08-.032.079-.034.078-.036.077-.038.076-.04.075-.041.074-.043.072-.045.072-.046.07-.048.07-.05.068-.051.066-.053.066-.054.064-.056.063-.057.061-.059.06-.06.059-.061.057-.063.056-.064.054-.066.053-.066.051-.068.05-.07.048-.07.046-.072.045-.072.043-.074.041-.075.04-.076.038-.077.036-.078.034-.079.032-.08.03-.081.029-.082.027-.082.024-.084.023-.084.02-.085.019-.086.016-.086.015-.087.012-.088.01-.089.008-.089.005-.09.004-.09.001-.09-.001-.09-.004-.089-.005-.089-.008-.088-.01-.087-.012-.086-.015-.086-.016-.085-.019-.084-.02-.084-.023-.082-.024-.082-.027-.081-.029-.08-.03-.079-.032-.078-.034-.077-.036-.076-.038-.075-.04-.074-.041-.072-.043-.072-.045-.07-.046-.07-.048-.068-.05-.066-.051-.066-.053-.064-.054-.063-.056-.061-.057-.06-.059-.059-.06-.057-.061-.056-.063-.054-.064-.053-.066-.051-.066-.05-.068-.048-.07-.046-.07-.045-.072-.043-.072-.041-.074-.04-.075-.038-.076-.036-.077-.034-.078-.032-.079-.03-.08-.029-.081-.027-.082-.024-.082-.023-.084-.02-.084-.019-.085-.016-.086-.015-.086-.012-.087-.01-.088-.008-.089-.005-.089-.004-.09-.001-.09.001-.09.004-.09.005-.089.008-.089.01-.088.012-.087.015-.086.016-.086.019-.085.02-.084.023-.084.024-.082.027-.082.029-.081.03-.08.032-.079.034-.078.036-.077.038-.076.04-.075.041-.074.043-.072.045-.072.046-.07.048-.07.05-.068.051-.066.053-.066.054-.064.056-.063.057-.061.059-.06.06-.059.061-.057.063-.056.064-.054.066-.053.066-.051.068-.05.07-.048.07-.046.072-.045.072-.043.074-.041.075-.04.076-.038.077-.036.078-.034.079-.032.08-.03.081-.029.082-.027.082-.024.084-.023.084-.02.085-.019.086-.016.086-.015.087-.012.088-.01.089-.008.089-.005.09-.004.09-.001.09.001zm-.155 1l-.064.002-.064.004-.063.006-.063.007-.063.009-.061.01-.061.012-.061.013-.06.015-.059.016-.059.017-.058.019-.058.021-.057.021-.056.023-.056.025-.055.025-.054.027-.053.028-.053.03-.052.031-.051.032-.05.033-.05.034-.048.036-.048.036-.047.038-.046.039-.045.04-.044.041-.043.042-.042.043-.041.044-.04.045-.039.046-.038.047-.036.047-.036.049-.034.05-.033.05-.032.051-.031.052-.03.053-.028.053-.027.055-.025.054-.025.056-.023.056-.021.057-.021.058-.019.058-.017.058-.016.06-.015.06-.013.061-.012.061-.01.061-.009.063-.007.063-.006.063-.004.064-.002.064-.001.065.001.065.002.064.004.064.006.063.007.063.009.063.01.061.012.061.013.061.015.06.016.06.017.058.019.058.021.058.021.057.023.056.025.056.025.054.027.055.028.053.03.053.031.052.032.051.033.05.034.05.036.049.036.047.038.047.039.046.04.045.041.044.042.043.043.042.044.041.045.04.046.039.047.038.048.036.048.036.05.034.05.033.051.032.052.031.053.03.053.028.054.027.055.025.056.025.056.023.057.021.058.021.058.019.059.017.059.016.06.015.061.013.061.012.061.01.063.009.063.007.063.006.064.004.064.002.065.001.065-.001.064-.002.064-.004.063-.006.063-.007.063-.009.061-.01.061-.012.061-.013.06-.015.059-.016.059-.017.058-.019.058-.021.057-.021.056-.023.056-.025.055-.025.054-.027.053-.028.053-.03.052-.031.051-.032.05-.033.05-.034.049-.036.047-.036.047-.038.046-.039.045-.04.044-.041.043-.042.042-.043.041-.044.04-.045.039-.046.038-.047.036-.047.036-.049.034-.05.034-.05.031-.051.031-.052.03-.053.028-.053.027-.055.025-.054.025-.056.023-.056.022-.057.02-.058.019-.058.017-.059.016-.059.015-.06.013-.061.012-.061.01-.061.009-.063.007-.063.006-.063.004-.064.002-.064.001-.065-.001-.065-.002-.064-.004-.064-.006-.063-.007-.063-.009-.063-.01-.061-.012-.061-.013-.061-.015-.06-.016-.059-.017-.059-.019-.058-.02-.058-.022-.057-.023-.056-.025-.056-.025-.054-.027-.055-.028-.053-.03-.053-.031-.052-.031-.051-.034-.05-.034-.05-.036-.049-.036-.047-.038-.047-.039-.046-.04-.045-.041-.044-.042-.043-.043-.042-.044-.041-.045-.04-.046-.039-.047-.038-.047-.036-.049-.036-.05-.034-.05-.033-.051-.032-.052-.031-.053-.03-.053-.028-.054-.027-.055-.025-.056-.025-.056-.023-.057-.021-.058-.021-.058-.019-.059-.017-.059-.016-.06-.015-.061-.013-.061-.012-.061-.01-.063-.009-.063-.007-.063-.006-.064-.004-.064-.002L477 347l-.065.001z" fill="#fff" fill-opacity=".345"/></g><g serif:id="v"><circle cx="358.5" cy="392.5" r="3.5" fill="#4a449d"/><circle cx="358.5" cy="392.5" r="3.5" fill="#fff" fill-opacity=".102"/><path d="M358.59 389.001l.09.004.089.005.089.008.088.01.087.012.086.015.086.016.085.019.084.02.084.023.082.024.082.027.081.029.08.03.079.032.078.034.077.036.076.038.075.04.074.041.072.043.072.045.07.046.07.048.068.05.066.051.066.053.064.054.063.056.061.057.06.059.059.06.057.061.056.063.054.064.053.066.051.066.05.068.048.07.046.07.045.072.043.072.041.074.04.075.038.076.036.077.034.078.032.079.03.08.029.081.027.082.024.082.023.084.02.084.019.085.016.086.015.086.012.087.01.088.008.089.005.089.004.09.001.09-.001.09-.004.09-.005.089-.008.089-.01.088-.012.087-.015.086-.016.086-.019.085-.02.084-.023.084-.024.082-.027.082-.029.081-.03.08-.032.079-.034.078-.036.077-.038.076-.04.075-.041.074-.043.072-.045.072-.046.07-.048.07-.05.068-.051.066-.053.066-.054.064-.056.063-.057.061-.059.06-.06.059-.061.057-.063.056-.064.054-.066.053-.066.051-.068.05-.07.048-.07.046-.072.045-.072.043-.074.041-.075.04-.076.038-.077.036-.078.034-.079.032-.08.03-.081.029-.082.027-.082.024-.084.023-.084.02-.085.019-.086.016-.086.015-.087.012-.088.01-.089.008-.089.005-.09.004-.09.001-.09-.001-.09-.004-.089-.005-.089-.008-.088-.01-.087-.012-.086-.015-.086-.016-.085-.019-.084-.02-.084-.023-.082-.024-.082-.027-.081-.029-.08-.03-.079-.032-.078-.034-.077-.036-.076-.038-.075-.04-.074-.041-.072-.043-.072-.045-.07-.046-.07-.048-.068-.05-.066-.051-.066-.053-.064-.054-.063-.056-.061-.057-.06-.059-.059-.06-.057-.061-.056-.063-.054-.064-.053-.066-.051-.066-.05-.068-.048-.07-.046-.07-.045-.072-.043-.072-.041-.074-.04-.075-.038-.076-.036-.077-.034-.078-.032-.079-.03-.08-.029-.081-.027-.082-.024-.082-.023-.084-.02-.084-.019-.085-.016-.086-.015-.086-.012-.087-.01-.088-.008-.089-.005-.089-.004-.09-.001-.09.001-.09.004-.09.005-.089.008-.089.01-.088.012-.087.015-.086.016-.086.019-.085.02-.084.023-.084.024-.082.027-.082.029-.081.03-.08.032-.079.034-.078.036-.077.038-.076.04-.075.041-.074.043-.072.045-.072.046-.07.048-.07.05-.068.051-.066.053-.066.054-.064.056-.063.057-.061.059-.06.06-.059.061-.057.063-.056.064-.054.066-.053.066-.051.068-.05.07-.048.07-.046.072-.045.072-.043.074-.041.075-.04.076-.038.077-.036.078-.034.079-.032.08-.03.081-.029.082-.027.082-.024.084-.023.084-.02.085-.019.086-.016.086-.015.087-.012.088-.01.089-.008.089-.005.09-.004.09-.001.09.001zm-.155 1l-.064.002-.064.004-.064.006-.062.007-.062.009-.062.01-.061.012-.061.013-.06.015-.059.016-.059.017-.058.019-.058.021-.057.021-.056.023-.056.025-.054.025-.055.027-.053.028-.053.03-.052.031-.051.032-.05.033-.05.034-.048.036-.048.036-.047.038-.046.039-.045.04-.044.041-.043.042-.042.043-.041.044-.04.045-.039.046-.038.047-.037.048-.035.048-.034.05-.033.05-.032.051-.031.052-.03.053-.028.053-.027.055-.025.054-.025.056-.023.056-.021.057-.021.058-.019.058-.017.059-.016.059-.015.06-.013.061-.012.061-.01.062-.009.062-.007.062-.006.064-.004.064-.002.064-.001.065.001.065.002.064.004.064.006.064.007.062.009.062.01.062.012.061.013.061.015.06.016.059.017.059.019.058.021.058.021.057.023.056.025.056.025.055.027.054.028.053.03.053.031.052.032.051.033.05.034.05.036.049.036.047.038.047.039.046.04.045.041.044.042.043.043.042.044.041.045.04.046.039.047.038.048.036.048.036.05.034.05.033.051.032.052.031.053.03.053.028.055.027.054.025.056.025.056.023.057.021.058.021.058.019.059.017.059.016.06.015.061.013.061.012.061.01.063.009.063.007.063.006.064.004.064.002.065.001.065-.001.064-.002.064-.004.063-.006.063-.007.063-.009.061-.01.061-.012.061-.013.06-.015.059-.016.059-.017.058-.019.058-.021.057-.021.056-.023.056-.025.055-.025.054-.027.053-.028.053-.03.052-.031.051-.032.05-.033.05-.034.049-.036.047-.036.047-.038.046-.039.045-.04.044-.041.043-.042.042-.043.041-.044.04-.045.039-.046.038-.047.036-.047.036-.049.034-.05.033-.05.033-.051.03-.052.03-.053.028-.053.027-.054.025-.055.025-.056.023-.056.021-.057.021-.058.019-.058.017-.059.016-.059.015-.06.013-.061.012-.061.01-.061.009-.063.007-.063.006-.063.004-.064.002-.064.001-.065-.001-.065-.002-.064-.004-.064-.006-.063-.007-.063-.009-.063-.01-.061-.012-.061-.013-.061-.015-.06-.016-.059-.017-.059-.019-.058-.021-.058-.021-.057-.023-.056-.025-.056-.025-.054-.027-.055-.028-.053-.03-.053-.031-.052-.032-.051-.033-.05-.034-.05-.036-.048-.036-.048-.038-.047-.039-.046-.04-.045-.041-.044-.042-.043-.043-.042-.044-.041-.045-.04-.046-.039-.047-.038-.047-.036-.049-.036-.05-.034-.05-.033-.051-.032-.052-.031-.053-.03-.053-.028-.054-.027-.055-.025-.056-.025-.056-.023-.057-.021-.058-.021-.058-.019-.059-.017-.059-.016-.06-.015-.061-.013-.061-.012-.062-.01-.062-.009-.062-.007-.064-.006-.064-.004-.064-.002-.065-.001-.065.001z" fill="#fff" fill-opacity=".345"/></g><g serif:id="v"><circle cx="448.09" cy="418.505" r="3.5" fill="#4a449d"/><circle cx="448.09" cy="418.505" r="3.5" fill="#fff" fill-opacity=".102"/><path d="M448.181 415.006l.089.003.089.006.089.008.088.01.087.012.087.014.085.017.085.018.085.021.083.023.083.024.081.027.081.028.08.031.079.032.078.034.077.036.076.038.075.039.074.042.073.043.071.044.071.047.069.048.068.049.067.052.065.052.064.055.063.055.062.058.06.058.058.06.058.062.055.063.055.064.052.065.052.067.049.068.048.069.047.071.044.071.043.073.042.074.039.075.038.076.036.077.034.078.032.079.031.08.028.081.027.081.024.083.023.083.021.085.018.085.017.085.014.087.012.087.01.088.008.089.006.089.003.089.001.091-.001.09-.003.09-.006.089-.008.088-.01.088-.012.087-.014.087-.017.086-.018.085-.021.084-.023.083-.024.083-.027.082-.028.081-.031.08-.032.078-.034.078-.036.078-.038.075-.039.075-.042.074-.043.073-.044.072-.047.07-.048.069-.049.068-.052.067-.052.065-.055.065-.055.062-.058.062-.058.06-.06.059-.062.057-.063.056-.064.054-.065.053-.067.051-.068.05-.069.048-.071.046-.071.045-.073.043-.074.041-.075.04-.076.037-.077.036-.078.034-.079.033-.08.03-.081.029-.081.026-.083.025-.083.022-.085.021-.085.019-.085.016-.087.014-.087.013-.088.01-.089.007-.089.006-.089.004-.091.001-.09-.001-.09-.004-.089-.006-.088-.007-.088-.01-.087-.013-.087-.014-.086-.016-.085-.019-.084-.021-.083-.022-.083-.025-.082-.026-.081-.029-.08-.03-.079-.033-.078-.034-.077-.036-.076-.037-.074-.04-.074-.041-.073-.043-.072-.045-.07-.046-.069-.048-.068-.05-.067-.051-.065-.053-.065-.054-.063-.056-.061-.057-.06-.059-.059-.06-.057-.062-.056-.062-.054-.065-.053-.065-.051-.067-.05-.068-.048-.069-.046-.07-.045-.072-.043-.073-.041-.074-.04-.075-.037-.075-.036-.078-.034-.078-.033-.078-.03-.08-.029-.081-.026-.082-.025-.083-.022-.083-.021-.084-.019-.085-.016-.086-.014-.087-.013-.087-.01-.088-.007-.088-.006-.089-.004-.09-.001-.09.001-.091.004-.089.006-.089.007-.089.01-.088.013-.087.014-.087.016-.085.019-.085.021-.085.022-.083.025-.083.026-.081.029-.081.03-.08.033-.079.034-.078.036-.077.037-.076.04-.075.041-.074.043-.073.045-.071.046-.071.048-.069.05-.068.051-.067.053-.065.054-.064.056-.063.057-.062.059-.06.06-.058.061-.058.063-.055.065-.055.065-.052.067-.052.068-.049.069-.048.07-.047.072-.044.073-.043.074-.042.074-.039.076-.038.077-.036.078-.034.079-.032.08-.031.081-.028.082-.027.083-.024.083-.023.084-.021.085-.018.086-.017.087-.014.087-.012.088-.01.088-.008.089-.006.09-.003.09-.001.091.001zm-.156 1l-.064.002-.064.004-.063.006-.063.007-.062.009-.062.01-.061.012-.061.013-.059.014-.06.017-.059.017-.058.019-.057.02-.057.022-.057.023-.055.024-.055.026-.055.027-.053.028-.053.03-.052.03-.051.032-.05.033-.049.035-.049.035-.048.037-.047.038-.046.038-.045.04-.044.041-.043.042-.042.044-.041.043-.04.045-.039.047-.038.046-.036.048-.036.049-.034.049-.033.051-.032.051-.031.052-.029.052-.029.054-.027.054-.025.055-.025.056-.022.056-.022.057-.021.058-.018.058-.018.058-.016.06-.015.06-.013.06-.012.061-.01.062-.008.062-.008.063-.005.064-.004.064-.003.064-.001.065.001.065.003.064.004.064.005.063.008.063.008.062.01.062.012.061.013.061.015.06.016.059.018.059.019.058.02.057.022.057.022.057.025.055.025.055.027.054.029.054.029.053.031.052.032.051.033.05.034.05.036.048.036.048.038.047.039.046.04.045.041.044.042.043.043.042.044.041.045.04.046.039.047.038.048.036.048.036.05.034.05.033.051.032.052.031.053.029.054.029.054.026.055.026.055.025.057.022.056.022.058.02.058.019.059.018.06.016.059.015.061.013.061.011.062.011.062.008.063.008.063.005.064.004.064.003.065.001.065-.001.064-.003.064-.004.064-.005.063-.008.062-.008.061-.011.062-.011.06-.013.06-.015.06-.016.058-.018.058-.019.058-.02.057-.022.056-.022.056-.025.055-.026.054-.026.054-.029.052-.029.052-.031.051-.032.051-.033.049-.034.049-.036.048-.036.046-.038.047-.039.044-.04.044-.041.044-.042.041-.043.042-.044.04-.045.038-.046.038-.047.037-.048.035-.049.035-.049.033-.05.032-.051.031-.053.029-.052.028-.054.027-.054.026-.055.024-.055.023-.057.022-.057.02-.057.019-.058.017-.059.017-.059.014-.06.013-.061.012-.061.01-.062.009-.062.007-.063.006-.063.004-.064.002-.064.001-.065-.001-.065-.002-.065-.004-.064-.006-.063-.007-.063-.009-.062-.01-.062-.012-.061-.013-.06-.014-.06-.017-.06-.017-.058-.019-.058-.02-.058-.022-.057-.023-.056-.024-.056-.026-.055-.027-.054-.028-.054-.029-.052-.031-.052-.032-.051-.033-.051-.035-.049-.035-.049-.037-.048-.038-.046-.039-.047-.039-.045-.042-.044-.041-.043-.043-.042-.045-.041-.045-.04-.046-.038-.046-.038-.048-.037-.049-.035-.05-.035-.05-.033-.051-.032-.052-.03-.052-.03-.054-.028-.054-.027-.055-.026-.056-.024-.056-.023-.057-.022-.057-.02-.059-.019-.058-.017-.06-.017-.06-.014-.06-.013-.062-.012-.061-.01-.062-.009-.063-.007-.063-.006-.064-.004-.065-.002-.065-.001-.065.001z" fill="#fff" fill-opacity=".345"/></g><g serif:id="v"><circle cx="614.797" cy="408.265" r="3.5" fill="#4a449d"/><circle cx="614.797" cy="408.265" r="3.5" fill="#fff" fill-opacity=".102"/><path d="M614.888 404.766l.089.003.09.006.088.008.088.01.087.012.087.014.085.017.085.018.085.021.083.023.083.024.081.027.081.028.08.031.079.032.078.034.077.036.076.038.075.039.074.042.073.043.071.044.071.047.069.048.068.049.067.052.065.052.064.055.063.055.062.058.06.058.059.06.057.062.056.063.054.064.053.065.051.067.049.068.048.069.047.071.044.071.043.073.042.074.039.075.038.076.036.077.034.078.032.079.031.08.028.081.027.081.025.083.022.083.021.085.018.085.017.085.014.087.012.087.01.088.008.089.006.089.003.089.001.091-.001.09-.003.09-.006.089-.008.088-.01.088-.012.087-.014.087-.017.086-.018.085-.021.084-.022.083-.025.083-.027.082-.028.081-.031.08-.032.078-.034.079-.036.077-.038.075-.039.075-.042.074-.043.073-.044.072-.047.07-.048.069-.049.068-.051.067-.053.065-.054.065-.056.062-.057.062-.059.06-.06.059-.062.057-.063.056-.064.054-.065.053-.067.051-.068.05-.069.048-.071.046-.071.045-.073.043-.074.041-.075.04-.076.037-.077.036-.078.034-.079.033-.08.03-.081.029-.081.026-.083.025-.083.022-.085.021-.085.019-.085.016-.087.014-.087.013-.088.01-.088.007-.09.006-.089.004-.091.001-.09-.001-.09-.004-.089-.006-.088-.007-.088-.01-.087-.013-.087-.014-.086-.016-.085-.019-.084-.021-.083-.022-.083-.025-.082-.026-.08-.029-.08-.03-.079-.033-.078-.034-.077-.036-.076-.037-.075-.04-.074-.041-.073-.043-.071-.045-.071-.046-.069-.048-.068-.05-.067-.051-.065-.053-.065-.054-.062-.056-.062-.057-.06-.059-.059-.06-.057-.062-.056-.062-.054-.065-.053-.065-.051-.067-.049-.068-.048-.069-.047-.07-.045-.072-.043-.073-.041-.074-.039-.075-.038-.075-.036-.077-.034-.079-.033-.078-.03-.08-.029-.081-.026-.082-.025-.083-.022-.083-.021-.084-.018-.085-.017-.086-.014-.087-.012-.087-.01-.088-.008-.088-.006-.089-.003-.09-.002-.09.002-.091.003-.089.006-.089.008-.089.01-.088.012-.087.014-.087.017-.085.018-.085.021-.085.022-.083.025-.083.026-.081.029-.081.03-.08.033-.079.034-.078.036-.077.038-.076.039-.075.041-.074.043-.073.045-.071.047-.071.048-.069.049-.068.051-.067.053-.065.054-.064.056-.063.057-.062.059-.06.06-.058.062-.058.062-.055.065-.055.065-.052.067-.052.068-.049.069-.048.071-.047.071-.044.073-.043.074-.042.075-.039.076-.038.077-.036.078-.034.079-.032.08-.031.08-.028.082-.027.083-.024.083-.023.084-.021.085-.018.086-.017.087-.014.087-.012.088-.01.088-.008.089-.006.09-.003.09-.001.091.001zm-.156 1l-.064.002-.064.004-.063.006-.063.007-.062.009-.062.01-.061.012-.06.013-.06.014-.06.017-.059.017-.058.019-.058.02-.056.022-.056.023-.056.024-.055.026-.054.027-.054.028-.053.03-.051.03-.052.032-.05.033-.049.035-.049.035-.048.037-.047.038-.046.038-.045.04-.044.041-.043.042-.042.043-.041.044-.04.046-.039.046-.037.046-.037.048-.036.049-.034.049-.033.051-.032.051-.031.052-.029.052-.028.054-.027.054-.026.055-.024.055-.023.057-.022.057-.02.058-.019.058-.018.058-.016.06-.014.06-.014.06-.011.061-.011.062-.008.062-.008.063-.005.063-.004.064-.003.065v.13l.003.064.004.064.005.063.008.063.008.062.011.062.011.061.014.061.014.06.016.059.018.059.019.058.02.057.022.057.023.057.024.055.026.055.027.054.028.054.029.052.031.053.032.051.033.05.034.049.036.049.037.048.037.047.039.046.04.045.041.044.042.043.043.042.044.041.045.04.046.039.047.038.048.036.049.036.049.034.05.033.052.032.051.031.053.029.054.029.054.026.055.026.056.025.056.022.056.022.058.02.059.019.058.018.06.016.06.015.06.013.061.012.062.01.062.008.063.008.063.005.064.004.065.003.064.001.065-.001.065-.003.064-.004.063-.005.063-.008.062-.008.062-.011.061-.011.06-.013.06-.015.06-.016.058-.018.059-.019.057-.02.057-.022.056-.022.056-.025.055-.026.054-.026.054-.029.052-.029.052-.031.051-.032.051-.033.049-.034.049-.036.048-.036.047-.038.046-.039.044-.04.045-.041.043-.042.042-.043.041-.044.04-.045.038-.046.038-.047.037-.048.035-.048.035-.05.033-.05.032-.051.031-.052.029-.053.028-.054.027-.054.026-.055.024-.055.023-.057.022-.057.02-.057.019-.058.018-.059.016-.059.014-.06.013-.061.012-.061.011-.062.008-.062.007-.063.006-.063.004-.064.003-.064v-.13l-.003-.064-.004-.064-.006-.064-.007-.063-.008-.062-.011-.062-.012-.061-.013-.06-.014-.06-.016-.06-.018-.058-.019-.058-.02-.058-.022-.057-.023-.056-.024-.056-.026-.055-.027-.054-.028-.054-.029-.052-.031-.052-.032-.051-.033-.051-.035-.049-.035-.049-.037-.048-.037-.046-.039-.047-.04-.045-.041-.043-.042-.044-.043-.042-.044-.041-.046-.04-.045-.038-.047-.038-.048-.037-.049-.035-.049-.035-.051-.033-.051-.032-.052-.03-.052-.03-.054-.028-.054-.027-.055-.026-.056-.024-.056-.023-.057-.022-.057-.02-.058-.019-.059-.017-.06-.017-.06-.014-.06-.013-.061-.012-.062-.01-.062-.009-.063-.007-.063-.006-.064-.004-.065-.002-.065-.001-.065.001z" fill="#fff" fill-opacity=".345"/></g><g serif:id="v"><circle cx="751.194" cy="425.877" r="3.5" fill="#4a449d"/><circle cx="751.194" cy="425.877" r="3.5" fill="#fff" fill-opacity=".102"/><path d="M751.284 422.379l.09.003.089.006.089.008.088.01.087.012.086.014.086.017.085.018.084.021.084.022.082.025.082.026.081.029.08.03.079.033.078.034.077.036.076.038.075.039.074.041.072.043.072.045.07.047.07.048.068.049.066.051.066.053.064.054.063.056.061.057.061.059.058.06.057.062.056.063.055.064.052.065.051.067.05.068.048.069.046.071.045.071.043.073.041.074.04.075.038.076.036.077.034.078.032.079.031.08.028.08.027.082.024.083.023.083.02.084.019.085.016.086.015.087.012.087.01.088.008.088.006.089.003.09.001.09-.001.091-.003.089-.006.09-.008.088-.01.088-.012.087-.015.087-.016.085-.019.085-.02.085-.023.083-.024.083-.027.082-.028.08-.031.08-.032.079-.034.078-.036.077-.038.076-.04.075-.041.074-.043.073-.045.071-.046.071-.048.069-.05.068-.051.067-.052.065-.055.064-.056.063-.057.062-.058.06-.061.059-.061.057-.063.056-.064.054-.066.053-.066.051-.068.049-.07.048-.07.047-.072.044-.072.043-.074.042-.075.039-.076.038-.077.036-.078.034-.079.033-.08.03-.081.028-.082.027-.082.025-.084.022-.084.021-.085.018-.086.017-.086.014-.087.012-.088.01-.089.008-.089.006-.09.003-.09.001-.09-.001-.09-.003-.089-.006-.088-.008-.088-.01-.088-.012-.086-.014-.086-.017-.085-.018-.084-.021-.084-.022-.082-.025-.082-.027-.081-.028-.08-.03-.079-.033-.078-.034-.077-.036-.076-.038-.075-.039-.073-.042-.073-.043-.072-.044-.07-.047-.069-.048-.068-.049-.067-.051-.066-.053-.064-.054-.063-.056-.061-.057-.06-.059-.059-.06-.057-.062-.056-.063-.054-.064-.053-.065-.051-.067-.05-.068-.048-.069-.046-.071-.045-.071-.043-.073-.041-.074-.04-.075-.037-.076-.036-.077-.035-.078-.032-.079-.03-.08-.029-.08-.026-.082-.025-.083-.023-.083-.02-.085-.019-.085-.016-.085-.014-.087-.013-.087-.01-.088-.008-.088-.005-.09-.004-.089-.001-.091.001-.09.004-.09.005-.089.008-.088.01-.088.013-.087.014-.087.016-.086.019-.085.02-.084.023-.083.025-.083.026-.082.029-.08.03-.08.032-.079.035-.078.036-.077.037-.076.04-.075.041-.074.043-.073.045-.071.046-.071.048-.069.05-.068.051-.067.053-.065.054-.064.056-.063.057-.062.059-.06.06-.059.061-.057.063-.056.064-.054.066-.053.067-.051.068-.049.069-.048.07-.047.072-.045.073-.043.073-.041.075-.039.076-.038.077-.036.078-.034.079-.033.08-.03.081-.029.082-.026.082-.025.084-.022.084-.021.085-.018.086-.017.086-.014.088-.012.088-.01.088-.008.089-.006.09-.003.09-.002.09.002zm-.155.999l-.064.003-.064.004-.063.005-.063.008-.062.008-.062.011-.061.011-.061.014-.06.014-.059.016-.059.018-.058.019-.057.02-.057.022-.057.023-.055.024-.055.026-.055.027-.053.028-.053.029-.052.031-.051.032-.05.033-.049.034-.049.036-.048.037-.047.037-.046.039-.045.04-.044.041-.043.042-.042.043-.041.044-.04.045-.039.046-.038.047-.036.048-.036.049-.034.049-.033.051-.032.051-.031.051-.029.053-.029.054-.027.054-.025.055-.025.056-.023.055-.021.058-.021.058-.019.058-.017.058-.016.059-.015.061-.013.06-.012.061-.01.062-.009.062-.007.063-.005.063-.004.064-.003.064-.001.065.001.065.003.065.004.064.005.063.007.063.009.062.01.062.012.061.013.06.015.061.016.059.017.058.019.058.021.058.021.057.023.056.025.056.025.055.027.054.029.054.029.053.031.052.032.05.033.051.034.049.036.049.036.048.038.047.039.046.04.045.041.044.042.043.043.042.044.041.045.04.046.038.047.038.048.037.048.035.05.035.05.033.051.032.052.031.053.029.053.028.055.027.055.026.055.024.056.023.058.022.057.02.058.019.059.018.059.016.06.014.061.014.061.011.062.011.062.008.062.007.064.006.064.004.064.003h.13l.064-.003.064-.004.064-.006.062-.007.063-.008.061-.011.062-.011.06-.014.06-.014.06-.016.058-.018.058-.019.058-.02.057-.022.056-.023.056-.024.055-.026.054-.027.054-.028.052-.029.052-.031.051-.032.051-.033.049-.035.049-.035.047-.037.047-.038.046-.038.045-.04.044-.041.043-.042.042-.043.042-.045.04-.045.038-.045.038-.047.037-.048.035-.049.035-.049.032-.05.032-.051.031-.053.03-.052.028-.054.027-.054.026-.055.024-.055.023-.057.022-.057.02-.057.019-.058.017-.06.017-.059.014-.06.013-.06.012-.061.01-.062.009-.062.007-.063.006-.064.004-.063.002-.065.001-.065-.001-.065-.002-.064-.004-.064-.006-.063-.007-.063-.009-.062-.01-.062-.012-.061-.013-.06-.014-.06-.017-.059-.017-.06-.019-.058-.02-.057-.022-.057-.023-.057-.025-.055-.025-.055-.027-.054-.028-.054-.03-.052-.031-.052-.032-.052-.032-.05-.035-.049-.035-.049-.037-.048-.038-.047-.039-.046-.039-.045-.042-.044-.042-.043-.042-.042-.045-.041-.045-.04-.046-.039-.046-.037-.048-.037-.049-.036-.05-.034-.05-.033-.051-.032-.052-.031-.052-.029-.054-.028-.054-.027-.055-.026-.056-.024-.056-.023-.057-.022-.057-.02-.059-.019-.059-.018-.059-.016-.06-.014-.061-.014-.061-.011-.061-.011-.063-.008-.062-.008-.064-.005-.063-.004-.065-.003h-.13z" fill="#fff" fill-opacity=".345"/></g><g serif:id="v"><circle cx="933.466" cy="390.242" r="3.5" fill="#4a449d"/><circle cx="933.466" cy="390.242" r="3.5" fill="#fff" fill-opacity=".102"/><path d="M933.556 386.743l.09.004.089.006.089.007.088.01.087.013.086.014.086.016.085.019.084.021.084.022.082.025.082.026.081.029.08.03.079.033.078.034.077.036.076.037.075.04.074.041.072.043.072.045.07.046.07.048.068.05.066.051.066.053.064.054.063.056.061.057.06.059.059.06.057.061.056.063.054.064.053.066.051.067.05.068.048.069.046.07.045.072.043.073.041.074.04.074.038.076.036.077.034.078.032.079.031.08.028.081.027.082.024.083.023.083.02.084.019.085.016.086.015.087.012.087.01.088.008.088.006.089.003.09.001.09-.001.091-.003.089-.006.089-.008.089-.01.088-.012.087-.015.087-.016.085-.019.085-.02.085-.023.083-.024.083-.027.081-.028.081-.031.08-.032.079-.034.078-.036.077-.038.076-.04.075-.041.074-.043.073-.045.071-.046.071-.048.069-.05.068-.051.067-.053.065-.054.064-.056.063-.057.062-.059.06-.06.058-.061.058-.063.055-.064.055-.066.052-.066.052-.068.049-.07.048-.07.047-.072.044-.072.043-.074.042-.075.039-.076.038-.077.036-.078.034-.079.032-.08.031-.081.028-.082.027-.082.024-.084.023-.084.021-.085.018-.086.017-.086.014-.087.012-.088.01-.089.008-.089.006-.09.003-.09.001-.09-.001-.09-.003-.089-.006-.089-.008-.087-.01-.088-.012-.086-.014-.086-.017-.085-.018-.084-.021-.084-.023-.082-.024-.082-.027-.081-.028-.08-.031-.079-.032-.078-.034-.077-.036-.076-.038-.075-.039-.073-.042-.073-.043-.072-.044-.07-.047-.069-.048-.068-.049-.067-.052-.066-.052-.064-.055-.063-.055-.061-.058-.06-.058-.059-.06-.057-.062-.056-.063-.054-.064-.053-.065-.051-.067-.05-.068-.048-.069-.046-.071-.045-.071-.043-.073-.041-.074-.04-.075-.038-.076-.036-.077-.034-.078-.032-.079-.03-.08-.029-.081-.026-.081-.025-.083-.023-.083-.02-.085-.019-.085-.016-.085-.015-.087-.012-.087-.01-.088-.008-.089-.005-.089-.004-.089-.001-.091.001-.09.004-.09.005-.089.008-.088.01-.088.012-.087.015-.087.016-.086.019-.085.02-.084.023-.083.025-.083.026-.082.029-.081.03-.08.032-.079.034-.078.036-.077.038-.076.04-.074.041-.074.043-.073.045-.072.046-.07.048-.069.05-.068.051-.067.053-.066.054-.064.056-.063.057-.061.059-.06.06-.059.061-.057.063-.056.064-.054.066-.053.067-.051.068-.05.069-.048.07-.046.072-.045.073-.043.073-.041.075-.04.076-.037.077-.036.078-.034.079-.033.08-.03.081-.029.082-.026.082-.025.084-.022.084-.021.085-.019.086-.016.086-.014.088-.013.087-.01.089-.007.089-.006.09-.004.09-.001.09.001zm-.155 1l-.064.003-.064.004-.063.005-.063.008-.062.008-.062.01-.061.012-.061.013-.06.015-.059.016-.059.018-.058.019-.058.02-.057.021-.056.024-.056.024-.054.025-.054.027-.054.029-.053.029-.052.031-.051.032-.05.033-.05.034-.048.036-.048.036-.047.038-.046.039-.045.04-.044.041-.043.042-.042.043-.041.044-.04.045-.039.046-.038.047-.037.048-.035.048-.034.05-.033.05-.032.052-.031.052-.03.052-.028.054-.027.054-.025.055-.025.055-.023.057-.021.056-.021.058-.019.058-.017.059-.016.059-.015.06-.013.061-.012.061-.01.062-.009.062-.007.063-.005.063-.005.064-.002.064-.001.065.001.065.002.065.005.064.005.063.007.062.009.063.01.061.012.062.013.06.015.06.016.06.017.058.019.059.021.057.021.057.023.056.025.056.025.055.027.054.028.054.03.052.031.052.032.051.033.051.034.049.035.049.037.047.038.047.039.046.04.046.041.043.042.043.043.043.044.041.045.04.046.038.047.038.048.037.048.035.05.035.05.033.051.032.052.03.053.03.053.028.055.027.054.026.056.024.057.023.056.022.058.02.058.019.059.017.059.017.06.014.061.013.061.012.062.01.062.009.063.007.063.006.064.004.064.002.065.001.065-.001.065-.002.063-.004.064-.006.062-.007.063-.009.061-.01.061-.012.061-.013.06-.014.059-.017.059-.017.058-.019.058-.02.057-.022.056-.023.056-.024.055-.026.054-.027.053-.028.053-.03.052-.03.051-.032.05-.033.05-.035.049-.035.047-.037.047-.038.046-.038.045-.04.044-.041.043-.043.042-.043.041-.043.04-.046.039-.046.038-.047.037-.047.035-.049.034-.049.034-.051.032-.051.03-.052.03-.052.028-.054.027-.054.025-.055.025-.056.023-.056.022-.057.02-.057.019-.059.017-.058.016-.06.015-.06.013-.06.012-.062.01-.061.009-.063.007-.062.006-.063.004-.064.002-.065.001-.065-.001-.064-.002-.065-.004-.064-.006-.063-.007-.063-.009-.062-.01-.062-.012-.061-.013-.061-.015-.06-.016-.059-.017-.059-.019-.058-.02-.058-.022-.056-.023-.057-.025-.055-.025-.055-.027-.054-.028-.054-.03-.052-.03-.052-.032-.052-.034-.05-.034-.05-.035-.048-.037-.048-.038-.047-.039-.046-.04-.045-.041-.044-.041-.043-.044-.042-.044-.041-.045-.04-.046-.039-.047-.038-.047-.036-.049-.036-.05-.034-.05-.033-.051-.032-.052-.031-.053-.029-.053-.029-.054-.027-.055-.025-.056-.024-.056-.024-.057-.021-.058-.02-.058-.019-.058-.018-.06-.016-.06-.015-.06-.013-.062-.012-.061-.01-.063-.008-.062-.008-.064-.005-.064-.004-.064-.003-.065-.001-.065.001z" fill="#fff" fill-opacity=".345"/></g><g serif:id="v"><circle cx="1058.39" cy="389.013" r="3.5" fill="#4a449d"/><circle cx="1058.39" cy="389.013" r="3.5" fill="#fff" fill-opacity=".102"/><path d="M1058.48 385.515l.09.003.089.006.089.008.088.01.087.012.086.014.086.017.085.018.084.021.084.022.082.025.082.027.081.028.08.03.079.033.078.034.077.036.076.038.075.039.074.041.072.043.072.045.07.047.07.048.068.049.066.051.066.053.064.054.063.056.061.057.06.059.059.06.057.062.056.063.054.064.053.065.051.067.05.068.048.069.046.071.045.071.043.073.041.074.04.075.038.076.036.077.034.078.032.079.031.08.028.08.027.082.024.083.023.083.02.084.019.085.016.086.015.087.012.087.01.088.008.088.005.089.004.09.001.09-.001.091-.004.089-.005.09-.008.088-.01.088-.012.087-.015.087-.016.085-.019.086-.02.084-.023.083-.024.083-.027.082-.028.08-.031.08-.032.079-.034.078-.036.077-.038.076-.04.075-.041.074-.043.073-.045.071-.046.071-.048.069-.05.068-.051.067-.053.065-.054.064-.056.063-.057.062-.059.06-.06.059-.061.057-.063.056-.064.054-.066.053-.066.051-.068.049-.07.048-.07.047-.072.044-.072.043-.074.042-.075.039-.076.038-.077.036-.078.034-.079.033-.08.03-.081.028-.082.027-.082.025-.084.022-.084.021-.085.018-.086.017-.086.014-.087.012-.088.01-.089.008-.089.006-.09.003-.09.001-.09-.001-.09-.003-.089-.006-.089-.008-.087-.01-.088-.012-.086-.014-.086-.017-.085-.018-.084-.021-.084-.022-.082-.025-.082-.027-.081-.028-.08-.03-.079-.033-.078-.034-.077-.036-.076-.038-.075-.039-.074-.042-.072-.043-.072-.044-.07-.047-.07-.048-.068-.049-.066-.051-.066-.053-.064-.054-.063-.056-.061-.057-.06-.059-.059-.06-.057-.062-.056-.063-.054-.064-.053-.065-.051-.067-.05-.068-.048-.069-.046-.071-.045-.071-.043-.073-.041-.074-.04-.075-.038-.076-.036-.077-.034-.078-.032-.079-.03-.08-.029-.08-.026-.082-.025-.083-.023-.083-.02-.084-.019-.086-.016-.085-.015-.087-.012-.087-.01-.088-.008-.088-.005-.09-.004-.089-.001-.091.001-.09.004-.09.005-.089.008-.088.01-.088.012-.087.015-.087.016-.086.019-.085.02-.084.023-.083.025-.083.026-.082.029-.08.03-.08.032-.079.034-.078.036-.077.038-.076.04-.075.041-.074.043-.073.045-.071.046-.071.048-.069.05-.068.051-.067.053-.065.054-.064.056-.063.057-.062.059-.06.06-.059.061-.057.063-.056.064-.054.066-.053.066-.051.068-.049.07-.048.07-.047.072-.045.072-.043.074-.041.075-.039.076-.038.077-.036.078-.034.079-.033.08-.03.081-.028.082-.027.082-.025.084-.022.084-.021.085-.018.086-.017.086-.014.088-.012.087-.01.089-.008.089-.006.09-.003.09-.002.09.002zm-.155.999l-.064.003-.064.004-.063.006-.063.007-.063.008-.061.011-.061.011-.061.014-.06.014-.059.016-.059.018-.058.019-.058.02-.057.022-.056.023-.056.024-.054.026-.054.027-.054.028-.053.029-.052.031-.051.032-.05.033-.05.035-.048.035-.048.037-.047.037-.046.039-.045.04-.044.041-.043.042-.042.043-.041.044-.04.045-.039.047-.038.046-.036.048-.036.048-.034.05-.033.051-.032.051-.031.052-.03.052-.028.054-.027.054-.025.055-.025.055-.023.057-.021.057-.021.057-.019.059-.017.058-.016.059-.015.061-.013.06-.012.061-.01.062-.009.062-.007.063-.006.063-.004.064-.002.065-.001.064.001.065.002.065.004.064.006.063.007.063.009.062.01.062.012.061.013.06.015.061.016.059.017.058.019.059.021.057.021.057.023.057.025.055.025.055.027.054.028.054.03.052.031.052.032.051.033.051.034.05.036.048.036.048.038.046.039.046.04.046.041.044.042.043.043.042.044.041.045.04.046.039.047.037.048.037.048.035.05.035.05.033.051.032.052.031.053.029.054.028.054.027.054.026.056.024.057.023.056.022.058.02.058.019.059.018.059.016.06.014.061.014.061.011.061.011.063.008.063.007.063.006.064.004.064.003h.13l.064-.003.064-.004.063-.006.063-.007.063-.008.061-.011.061-.011.061-.014.06-.014.059-.016.059-.018.058-.019.058-.02.057-.022.056-.023.056-.024.054-.026.055-.027.053-.028.053-.029.052-.031.051-.032.05-.033.05-.035.048-.035.048-.037.047-.037.046-.039.045-.04.044-.041.043-.042.042-.043.041-.044.04-.046.039-.045.038-.047.037-.048.035-.048.034-.05.034-.051.032-.051.03-.052.03-.052.028-.054.027-.054.025-.055.025-.055.023-.057.021-.057.021-.057.019-.059.017-.058.016-.059.015-.061.013-.06.012-.061.01-.062.009-.062.007-.063.006-.063.004-.064.002-.065.001-.065-.001-.064-.002-.065-.004-.064-.006-.063-.007-.063-.009-.062-.01-.062-.012-.061-.013-.06-.015-.061-.016-.059-.017-.058-.019-.059-.021-.057-.021-.057-.023-.057-.025-.055-.025-.055-.027-.054-.028-.054-.03-.052-.03-.052-.032-.051-.034-.051-.034-.05-.035-.048-.037-.048-.038-.047-.039-.046-.04-.045-.041-.044-.042-.043-.043-.042-.044-.041-.045-.04-.046-.039-.047-.037-.047-.037-.049-.035-.05-.035-.05-.033-.051-.032-.052-.031-.053-.029-.053-.028-.055-.027-.054-.026-.056-.024-.056-.023-.057-.022-.058-.02-.058-.019-.059-.018-.059-.016-.06-.014-.061-.014-.061-.011-.061-.011-.063-.008-.063-.007-.063-.006-.064-.004-.064-.003h-.13z" fill="#fff" fill-opacity=".345"/></g><g serif:id="v"><circle cx="1125.57" cy="353.788" r="3.5" fill="#4a449d"/><circle cx="1125.57" cy="353.788" r="3.5" fill="#fff" fill-opacity=".102"/><path d="M1125.66 350.289l.089.003.09.006.088.008.088.01.087.012.087.015.085.016.085.019.085.02.083.023.083.024.081.027.081.028.08.031.079.032.078.034.077.036.076.038.075.04.074.041.073.043.071.045.071.046.069.048.068.05.067.051.065.053.064.054.063.056.062.057.06.059.058.06.058.061.055.063.055.064.053.066.051.066.049.068.048.07.047.07.044.072.043.072.042.074.039.075.038.076.036.077.034.078.032.079.031.08.028.081.027.082.025.082.022.084.021.084.018.085.017.086.014.086.012.087.01.088.008.089.006.089.003.09.001.09-.001.09-.003.09-.006.089-.008.089-.01.087-.012.088-.014.086-.017.086-.018.085-.021.084-.022.084-.025.082-.027.082-.028.081-.031.08-.032.079-.034.078-.036.077-.038.076-.039.075-.042.073-.043.073-.044.072-.047.07-.048.069-.049.068-.051.067-.053.066-.055.064-.055.063-.058.061-.058.06-.06.059-.062.057-.063.056-.064.054-.065.053-.067.051-.068.05-.069.048-.071.046-.071.045-.073.043-.074.041-.075.04-.076.038-.077.036-.078.034-.079.032-.08.03-.081.029-.081.026-.083.025-.083.023-.085.02-.085.019-.085.016-.087.015-.087.012-.088.01-.088.008-.09.005-.089.004-.091.001-.09-.001-.09-.004-.089-.005-.088-.008-.088-.01-.087-.012-.087-.015-.086-.016-.085-.019-.084-.02-.083-.023-.083-.025-.082-.026-.08-.029-.08-.03-.079-.032-.078-.034-.077-.036-.076-.038-.075-.04-.074-.041-.073-.043-.071-.045-.071-.046-.069-.048-.068-.05-.067-.051-.065-.053-.065-.054-.062-.056-.062-.057-.06-.059-.059-.06-.057-.061-.056-.063-.054-.064-.053-.066-.051-.067-.049-.068-.049-.069-.046-.07-.045-.072-.043-.073-.041-.073-.039-.075-.038-.076-.036-.077-.034-.078-.033-.079-.03-.08-.029-.081-.026-.082-.025-.082-.022-.084-.021-.084-.018-.085-.017-.086-.014-.086-.012-.088-.011-.087-.007-.089-.006-.089-.003-.09-.002-.09.002-.09.003-.09.006-.089.007-.089.011-.088.012-.087.014-.086.017-.086.018-.085.021-.084.022-.084.025-.082.026-.082.029-.081.03-.08.033-.079.034-.078.036-.077.038-.076.039-.075.041-.074.043-.072.045-.072.046-.07.049-.07.049-.068.051-.066.053-.066.054-.064.056-.063.057-.061.059-.06.06-.059.062-.057.062-.056.065-.054.065-.053.067-.051.068-.05.069-.048.071-.046.071-.045.073-.043.074-.041.075-.04.076-.038.077-.036.078-.034.079-.032.08-.031.08-.028.082-.027.083-.024.083-.023.084-.02.085-.019.086-.016.087-.015.087-.012.088-.01.088-.008.089-.006.09-.003.09-.001.091.001zm-.156 1l-.064.002-.064.004-.063.006-.063.007-.062.009-.062.01-.061.012-.06.013-.061.015-.059.016-.059.017-.058.019-.057.02-.057.022-.057.023-.055.024-.055.026-.054.027-.054.028-.052.03-.052.03-.052.032-.05.034-.05.034-.048.036-.048.036-.047.038-.046.039-.045.04-.044.04-.043.043-.042.043-.041.044-.04.045-.039.046-.037.046-.037.049-.036.048-.034.049-.033.051-.032.051-.031.052-.029.053-.028.053-.027.054-.026.056-.024.055-.023.056-.022.057-.02.057-.019.059-.018.058-.016.06-.014.06-.014.061-.011.061-.011.062-.008.062-.008.062-.005.063-.004.064-.003.065v.13l.003.065.004.063.005.063.008.063.008.062.011.062.011.061.014.061.014.06.016.059.018.059.019.058.02.058.022.056.023.057.024.055.026.055.027.055.028.053.029.053.031.051.032.052.033.05.034.05.036.048.037.048.037.047.039.046.04.045.041.044.042.043.043.042.044.041.045.04.046.039.047.038.048.036.049.036.049.034.05.033.052.032.052.031.052.03.054.028.054.027.055.025.055.025.057.023.057.021.057.021.058.019.059.017.059.016.061.015.06.013.061.012.062.01.062.009.063.007.063.006.064.004.064.002.065.001.065-.001.065-.002.064-.004.063-.006.063-.007.062-.009.062-.01.061-.012.06-.013.06-.015.06-.016.059-.017.058-.019.057-.021.057-.021.057-.023.055-.025.055-.025.054-.027.054-.028.052-.03.052-.031.052-.032.05-.033.049-.034.049-.036.048-.036.047-.038.046-.039.044-.04.045-.041.043-.042.042-.043.041-.044.04-.045.039-.046.037-.047.037-.047.035-.049.035-.05.033-.05.032-.052.031-.051.029-.053.028-.054.027-.054.026-.054.024-.056.023-.057.022-.056.02-.058.019-.058.018-.059.016-.059.014-.06.013-.06.012-.062.01-.062.009-.062.007-.063.006-.063.004-.063.002-.066.001-.064-.001-.065-.002-.065-.004-.064-.006-.063-.007-.062-.009-.062-.01-.062-.012-.062-.013-.06-.014-.06-.016-.06-.018-.058-.019-.059-.02-.057-.022-.057-.023-.056-.024-.056-.026-.055-.027-.054-.028-.053-.029-.053-.031-.052-.032-.051-.033-.051-.035-.049-.035-.049-.037-.047-.037-.047-.039-.046-.04-.045-.041-.044-.042-.043-.044-.043-.044-.041-.044-.039-.046-.039-.047-.038-.048-.037-.049-.035-.049-.034-.051-.034-.051-.031-.052-.031-.052-.03-.054-.028-.054-.027-.055-.026-.056-.024-.056-.023-.057-.022-.057-.02-.058-.019-.059-.017-.06-.016-.06-.015-.06-.013-.061-.012-.062-.01-.062-.009-.063-.007-.064-.006-.063-.004-.065-.002-.065-.001-.065.001z" fill="#fff" fill-opacity=".345"/></g></svg>